<svg width="21" height="27" viewBox="0 0 21 27" fill="none" xmlns="http://www.w3.org/2000/svg">
<g clip-path="url(#clip0_2001_5502)">
<path d="M20.3852 0H-3.05176e-05V26.7556H20.3852V0Z" fill="black"/>
<path d="M19.2346 17.6421H1.13234V25.5749H19.2346V17.6421Z" fill="#6D6E70"/>
<path d="M1.13234 1.18069V14.0727L19.2528 1.18069H1.13234Z" fill="#E3E3E3"/>
<path d="M1.13234 17.6506H6.03405L1.13234 12.9048V17.6506Z" fill="#00FF00"/>
<path d="M5.71146 17.7181C8.24044 17.7181 10.2906 15.5815 10.2906 12.9458C10.2906 10.3101 8.24044 8.17351 5.71146 8.17351C3.18248 8.17351 1.13234 10.3101 1.13234 12.9458C1.13234 15.5815 3.18248 17.7181 5.71146 17.7181Z" fill="#6D6E70"/>
<path d="M5.01417 20.1872L4.80655 20.3929C4.66593 20.2375 4.50712 20.1598 4.33094 20.1598C4.18205 20.1598 4.05715 20.2128 3.95458 20.3186C3.85284 20.4245 3.80156 20.5551 3.80156 20.7105C3.80156 20.8189 3.82389 20.9145 3.86939 20.999C3.91488 21.0827 3.97857 21.1484 4.06046 21.1971C4.14317 21.2449 4.23499 21.2688 4.33507 21.2688C4.4211 21.2688 4.49968 21.2517 4.57081 21.2185C4.64195 21.1852 4.72053 21.1237 4.80572 21.0358L5.00672 21.2543C4.89175 21.3713 4.78256 21.4524 4.68082 21.4976C4.57826 21.5429 4.46163 21.5659 4.33011 21.5659C4.08775 21.5659 3.89006 21.4857 3.73539 21.326C3.58071 21.1664 3.50378 20.9615 3.50378 20.7113C3.50378 20.55 3.53852 20.4057 3.60883 20.2802C3.67914 20.1547 3.77923 20.0531 3.91074 19.9771C4.04143 19.9003 4.18288 19.8627 4.33342 19.8627C4.46163 19.8627 4.5857 19.8909 4.70481 19.9473C4.82392 20.0036 4.92649 20.0839 5.01251 20.188L5.01417 20.1872Z" fill="white"/>
<path d="M5.72717 19.9019H6.04149C6.21354 19.9019 6.33596 19.9181 6.40875 19.9497C6.48154 19.9813 6.54026 20.0351 6.58493 20.1094C6.6296 20.1836 6.65193 20.2716 6.65193 20.3732C6.65193 20.4799 6.62712 20.5687 6.57831 20.6404C6.52951 20.7121 6.45507 20.7659 6.35664 20.8034L6.72555 21.5248H6.4013L6.05142 20.8376H6.02412V21.5248H5.728V19.9019H5.72717ZM6.02412 20.5362H6.11676C6.21106 20.5362 6.27558 20.5234 6.31114 20.4978C6.34671 20.4722 6.36408 20.4295 6.36408 20.3697C6.36408 20.3347 6.35498 20.3031 6.33761 20.2775C6.32024 20.2511 6.29625 20.2323 6.26648 20.2212C6.2367 20.2101 6.18293 20.2041 6.10353 20.2041H6.02247V20.5371L6.02412 20.5362Z" fill="white"/>
<path d="M7.87363 19.9019H8.17388L8.77274 21.5248H8.46504L8.34345 21.191H7.7082L7.58164 21.5248H7.27394L7.87445 19.9019H7.87363ZM8.025 20.3322L7.81655 20.8897H8.23344L8.02582 20.3322H8.025Z" fill="white"/>
<path d="M9.43944 19.9019H10.212V20.2033H9.7339V20.4978H10.212V20.7949H9.7339V21.5248H9.43944V19.9019Z" fill="white"/>
<path d="M10.7563 19.9019H11.6165V20.2067H11.3328V21.5248H11.0325V20.2067H10.7563V19.9019Z" fill="white"/>
<path d="M12.2319 19.9019H12.5264V21.5248H12.2319V19.9019Z" fill="white"/>
<path d="M13.294 19.9019H13.5785L14.2444 20.9699V19.9019H14.5405V21.5248H14.2551L13.5901 20.4602V21.5248H13.294V19.9019Z" fill="white"/>
<path d="M16.768 20.1666L16.5596 20.3817C16.4272 20.2357 16.2734 20.1631 16.098 20.1631C15.945 20.1631 15.816 20.2161 15.7134 20.3219C15.61 20.4278 15.5579 20.5567 15.5579 20.7078C15.5579 20.8589 15.6117 20.9972 15.7192 21.1057C15.8267 21.2141 15.9591 21.2687 16.1162 21.2687C16.2188 21.2687 16.3048 21.2465 16.3751 21.2013C16.4454 21.1569 16.5025 21.086 16.5455 20.9904H16.0947V20.7001H16.878L16.8805 20.7684C16.8805 20.9102 16.8449 21.045 16.7746 21.1722C16.7043 21.2994 16.6125 21.3968 16.5 21.4634C16.3875 21.53 16.256 21.5641 16.1055 21.5641C15.9442 21.5641 15.7994 21.5274 15.6729 21.454C15.5463 21.3806 15.4462 21.2764 15.3726 21.1415C15.299 21.0058 15.2618 20.8606 15.2618 20.7036C15.2618 20.4884 15.3296 20.3023 15.4661 20.1435C15.6274 19.9548 15.8383 19.8601 16.0972 19.8601C16.2328 19.8601 16.3594 19.8865 16.4769 19.9386C16.5761 19.983 16.6737 20.0581 16.7688 20.1657L16.768 20.1666Z" fill="white"/>
<path d="M5.65108 23.2587H6.18873V23.5387H5.65108V23.2587Z" fill="white"/>
<path d="M8.02666 22.3743H8.32278V23.7027H8.75455V23.9972H8.02666V22.3743Z" fill="white"/>
<path d="M9.88858 22.3743H10.1888L10.7877 23.9972H10.48L10.3584 23.6625H9.72315L9.5966 23.9972H9.28889L9.88941 22.3743H9.88858ZM10.0408 22.8045L9.83233 23.362H10.2492L10.0416 22.8045H10.0408Z" fill="white"/>
<path d="M11.4511 23.9972V22.3743H11.6959C11.8382 22.3743 11.9416 22.3837 12.0078 22.4033C12.1012 22.4289 12.1748 22.4767 12.2303 22.5467C12.2849 22.6167 12.313 22.6987 12.313 22.7934C12.313 22.8549 12.3006 22.9113 12.2758 22.9616C12.2509 23.012 12.2096 23.059 12.1533 23.1033C12.2476 23.1494 12.3171 23.2075 12.3609 23.2775C12.4048 23.3467 12.4263 23.4295 12.4263 23.5242C12.4263 23.619 12.404 23.6984 12.3585 23.7735C12.313 23.8486 12.2551 23.905 12.1839 23.9417C12.1128 23.9784 12.0144 23.9972 11.8886 23.9972H11.4519H11.4511ZM11.7472 22.6688V23.0111H11.8117C11.8837 23.0111 11.9374 22.9949 11.973 22.9633C12.0086 22.9317 12.026 22.8891 12.026 22.8344C12.026 22.7841 12.0094 22.7431 11.9763 22.714C11.9432 22.6842 11.8928 22.6697 11.8241 22.6697H11.748L11.7472 22.6688ZM11.7472 23.2869V23.7027H11.8216C11.9449 23.7027 12.0276 23.6864 12.0706 23.654C12.1136 23.6216 12.1351 23.5746 12.1351 23.5131C12.1351 23.4431 12.1103 23.3885 12.0599 23.3475C12.0094 23.3074 11.9259 23.2869 11.8092 23.2869H11.748H11.7472Z" fill="white"/>
<path d="M14.1906 23.2587H14.7282V23.5387H14.1906V23.2587Z" fill="white"/>
</g>
<defs>
<clipPath id="clip0_2001_5502">
<rect width="20.3852" height="26.7556" fill="white"/>
</clipPath>
</defs>
</svg>
