<svg preserveAspectRatio="none" width="100%" height="100%" overflow="visible" style="display: block;" viewBox="0 0 152.065 121.66" fill="none" xmlns="http://www.w3.org/2000/svg">
<g id="Layer_1" clip-path="url(#clip0_0_121)">
<g id="Group">
<path id="Vector" d="M18.348 107.04H22.0565C22.0565 107.04 22.173 107.001 22.1924 106.943L22.4059 106.36C22.4059 106.36 22.4059 106.263 22.4059 106.224C22.3865 106.186 22.3283 106.166 22.2894 106.166C22.1924 106.166 22.1147 106.205 22.0953 106.263C22.037 106.341 21.5322 106.613 20.1343 106.613H19.2412V104.458C19.2412 104.458 19.3188 104.419 19.3188 104.38C19.4159 104.127 19.5518 104.089 19.6683 104.089C19.8236 104.089 20.0372 104.186 20.2314 104.263C20.4644 104.36 20.6973 104.458 20.9303 104.458C21.1051 104.458 21.3575 104.38 21.5128 104.05C21.5322 103.992 21.5128 103.914 21.4546 103.875C21.3963 103.836 21.3187 103.856 21.2798 103.914C21.1051 104.147 20.7556 104.011 20.4061 103.875C20.1731 103.778 19.9401 103.681 19.7265 103.681C19.5324 103.681 19.3771 103.759 19.2606 103.894V101.603H19.9401C21.2216 101.603 21.7652 101.817 21.8235 101.875C21.8429 101.933 21.9011 101.953 21.9982 101.972C22.037 101.972 22.0953 101.972 22.1147 101.933C22.1535 101.895 22.1535 101.856 22.1535 101.817L22.0565 101.312C22.0565 101.312 21.9788 101.196 21.9205 101.196H18.3869C18.3869 101.196 18.2509 101.254 18.2509 101.332V106.865C18.2509 106.865 18.3092 107.001 18.3869 107.001L18.348 107.04Z" fill="var(--fill-0, white)"/>
<path id="Vector_2" d="M29.2209 105.661C28.7161 106.36 28.1336 106.71 27.4347 106.71C25.7066 106.71 24.6388 105.118 24.6388 103.661C24.6388 102.652 25.163 101.584 26.6192 101.584C26.8716 101.584 27.59 101.7 27.59 102.225C27.59 102.302 27.59 102.38 27.5512 102.477C27.5317 102.555 27.5706 102.632 27.6482 102.652C27.8424 102.71 28.056 102.671 28.2113 102.555C28.3666 102.438 28.4637 102.264 28.4637 102.069C28.4637 101.662 28.056 101.176 26.8716 101.176C25.3183 101.176 23.6291 102.108 23.6291 104.147C23.6291 105.603 24.697 107.176 27.0463 107.176C28.2307 107.176 28.9685 106.749 29.4733 105.817C29.5122 105.758 29.4733 105.661 29.4151 105.642C29.3568 105.603 29.2792 105.622 29.2209 105.681V105.661Z" fill="var(--fill-0, white)"/>
<path id="Vector_3" d="M33.8225 107.156C36.1718 107.156 37.2397 105.584 37.2397 104.127C37.2397 102.671 36.1718 101.099 33.8225 101.099C31.4732 101.099 30.4247 102.671 30.4247 104.127C30.4247 105.584 31.4926 107.156 33.8225 107.156ZM36.2106 104.613C36.2106 105.622 35.6864 106.69 34.2302 106.69C32.5022 106.69 31.4538 105.098 31.4538 103.642C31.4538 102.632 31.978 101.565 33.4342 101.565C35.1622 101.565 36.2301 103.137 36.2301 104.613H36.2106Z" fill="var(--fill-0, white)"/>
<path id="Vector_4" d="M46.1128 105.875C46.4622 105.409 46.637 104.885 46.637 104.438C46.637 103.545 45.9768 103.001 44.8701 102.962C45.1225 102.749 45.2779 102.477 45.2779 102.166C45.2779 101.448 44.6371 101.118 44.0353 101.118C43.3557 101.118 42.6567 101.545 42.6567 102.322C42.6567 102.768 42.8703 103.293 43.181 103.817C42.812 103.778 42.3072 103.992 41.9578 104.341C41.6277 104.671 41.4724 105.079 41.4724 105.506C41.4724 106.613 42.5791 107.176 43.6469 107.176C44.443 107.176 45.0449 106.846 45.4526 106.535C45.6079 106.71 45.7633 106.885 45.8409 106.982C45.8603 107.02 45.8992 107.04 45.9574 107.04H46.9865C46.9865 107.04 47.103 107.001 47.1224 106.923C47.1224 106.865 47.1224 106.787 47.0447 106.768C46.9671 106.729 46.6564 106.457 46.0933 105.875H46.1128ZM45.8603 104.632C45.8603 104.904 45.8021 105.176 45.705 105.428C45.0255 104.691 44.3653 103.875 43.9188 103.215C44.1323 103.254 44.3847 103.215 44.6177 103.098C44.6177 103.157 44.676 103.215 44.7342 103.215C45.5497 103.331 45.8409 104.03 45.8409 104.613L45.8603 104.632ZM43.8799 102.924C43.8799 102.924 43.8023 102.943 43.7828 102.982C43.5499 102.613 43.4139 102.302 43.4139 102.108C43.4139 101.72 43.7052 101.487 43.9964 101.487C44.2877 101.487 44.443 101.72 44.443 102.108C44.443 102.788 44.1517 102.904 43.8799 102.924ZM43.3169 104.147C43.3169 104.147 43.3751 104.147 43.3945 104.147C43.9382 104.962 44.6566 105.739 45.1614 106.244C44.8701 106.516 44.3847 106.807 43.6663 106.807C43.0256 106.807 42.5208 106.224 42.5208 105.487C42.5208 104.924 42.6956 104.458 43.0062 104.244C43.1033 104.166 43.2004 104.147 43.2586 104.147C43.278 104.147 43.2974 104.147 43.3169 104.147Z" fill="var(--fill-0, white)"/>
<path id="Vector_5" d="M55.0635 107.156C55.7042 107.156 56.1119 107.04 56.4226 106.768L57.0245 107.02C57.0245 107.02 57.1216 107.02 57.1604 107.02C57.1992 107.02 57.2186 106.943 57.2186 106.904V104.108C57.2186 104.108 57.1604 103.972 57.0827 103.972H54.4228C54.4228 103.972 54.2868 104.03 54.2868 104.108V104.225C54.2868 104.225 54.3451 104.36 54.4228 104.36H56.2284V106.438C56.0343 106.613 55.7819 106.69 55.4518 106.69C53.7238 106.69 52.6559 105.098 52.6559 103.642C52.6559 102.632 53.1801 101.565 54.6363 101.565C55.18 101.565 55.7625 101.914 55.7625 102.477C55.7625 102.535 55.8013 102.594 55.8595 102.613C56.0343 102.652 56.1896 102.613 56.3255 102.535C56.4614 102.438 56.5391 102.264 56.5391 102.089C56.5391 101.662 56.0925 101.157 54.8693 101.157C53.3161 101.157 51.6269 102.089 51.6269 104.127C51.6269 105.584 52.6947 107.156 55.0441 107.156H55.0635Z" fill="var(--fill-0, white)"/>
<path id="Vector_6" d="M61.859 105.661C62.1503 106.36 62.4609 107.137 63.3735 107.137C63.5482 107.137 63.7424 107.098 63.956 107.04C64.0336 107.02 64.0725 106.943 64.053 106.885C64.0336 106.826 63.9754 106.768 63.8977 106.768C63.5676 106.807 63.3929 106.457 63.1211 105.894C62.8881 105.351 62.5968 104.71 61.9755 104.38C62.6939 104.127 63.0628 103.506 63.0628 102.924C63.0628 102.089 62.325 101.234 60.6747 101.234H59.1602C59.1602 101.234 59.0243 101.293 59.0243 101.37V106.904C59.0243 106.904 59.0826 107.04 59.1602 107.04H59.898C59.898 107.04 60.0339 106.982 60.0339 106.904V104.225C60.3834 104.36 60.7135 104.458 60.9853 104.477C61.4319 104.613 61.6455 105.118 61.859 105.661ZM60.0339 101.642H60.4805C61.5484 101.642 62.0338 102.302 62.0338 102.904C62.0338 103.448 61.6261 104.011 60.7329 104.011C60.4999 104.011 60.2669 103.972 60.0339 103.914V101.642Z" fill="var(--fill-0, white)"/>
<path id="Vector_7" d="M71.334 104.147C71.334 102.691 70.2661 101.118 67.9168 101.118C65.5675 101.118 64.519 102.691 64.519 104.147C64.519 105.603 65.5869 107.176 67.9168 107.176C70.2467 107.176 71.334 105.603 71.334 104.147ZM65.5286 103.642C65.5286 102.632 66.0529 101.565 67.5091 101.565C69.2371 101.565 70.305 103.137 70.305 104.613C70.305 105.622 69.7807 106.69 68.3245 106.69C66.5965 106.69 65.5481 105.098 65.5481 103.642H65.5286Z" fill="var(--fill-0, white)"/>
<path id="Vector_8" d="M77.3529 106.962C77.3529 106.962 77.4306 107.04 77.4888 107.04H77.6247C77.6247 107.04 77.7218 107.001 77.7607 106.962L80.2653 101.429C80.2653 101.429 80.2653 101.332 80.2653 101.293C80.2459 101.254 80.1876 101.234 80.1488 101.234H79.4498C79.4498 101.234 79.3139 101.293 79.3139 101.37C79.3139 101.467 79.3528 101.545 79.4304 101.565C79.4693 101.565 79.5275 101.662 79.5275 101.836C79.5275 102.011 79.4693 102.225 79.3528 102.477L77.916 105.661L76.1103 101.312C76.1103 101.312 76.0326 101.234 75.9744 101.234H75.1589C75.1589 101.234 75.0619 101.254 75.0424 101.293C75.023 101.332 75.0036 101.39 75.0424 101.429L75.9356 103.564L74.9842 105.681L73.1785 101.332C73.1785 101.332 73.1008 101.254 73.0426 101.254H72.2465C72.2465 101.254 72.1495 101.273 72.1301 101.312C72.1106 101.351 72.0912 101.409 72.1301 101.448L74.46 106.982C74.46 106.982 74.5376 107.059 74.5959 107.059H74.7318C74.7318 107.059 74.8289 107.02 74.8677 106.982L76.188 104.089L77.3918 106.982L77.3529 106.962Z" fill="var(--fill-0, white)"/>
</g>
<path id="Vector_9" d="M151.192 71.1398C150.726 70.9651 150.279 71.0234 149.871 71.334C146.202 74.5376 143.192 76.5181 140.843 77.2947C139.697 77.7024 138.921 77.8189 138.513 77.6053C138.105 77.3918 137.931 76.6928 137.969 75.5084C138.028 75.3531 138.047 75.1201 138.047 74.8094C138.086 73.7804 138.144 72.7514 138.164 71.7612C138.202 70.7515 137.892 69.9166 137.27 69.2565C136.649 68.5769 135.678 68.3051 134.397 68.4022C133.931 68.4605 133.426 68.5381 132.882 68.6352C132.339 68.7323 131.853 68.8488 131.446 68.9847C131.038 69.1206 130.533 69.3342 129.931 69.6448C129.329 69.9555 128.863 70.1885 128.533 70.3438C128.184 70.4991 127.679 70.7709 127.019 71.1593C126.359 71.5476 125.912 71.8194 125.699 71.9747C125.485 72.1301 125.038 72.4213 124.339 72.8679C123.64 73.3144 123.233 73.5668 123.136 73.6833C120.961 75.023 118.981 76.3433 117.233 77.6248C118.573 74.0134 120.029 70.4797 121.582 67.0237C121.854 66.3441 121.66 65.7811 121.039 65.3151C120.32 64.8491 119.777 65.0044 119.408 65.7811C118.573 67.6256 117.971 69.4895 117.214 71.334C116.884 71.2175 116.573 71.1204 116.224 71.2758C114.554 72.2077 113.428 72.829 112.845 73.1397C112.243 73.4503 111.253 73.9357 109.894 74.6153C108.535 75.2948 107.292 75.8191 106.205 76.2074C105.118 76.5957 104.011 76.9452 102.865 77.2559C102.827 77.2559 102.225 77.3918 101.118 77.683C99.9919 77.9742 99.2541 78.1684 98.8657 78.2655C98.4774 78.3626 97.759 78.4985 96.73 78.6538C95.701 78.8091 94.8661 78.8674 94.2836 78.848C93.6817 78.8285 93.0216 78.7315 92.3032 78.5761C91.5848 78.4208 90.9441 78.1878 90.4392 77.8772C89.0413 76.9064 89.1966 75.4308 90.9052 73.4698C90.9441 73.4698 91.0411 73.4115 91.1382 73.3144L91.2159 73.2368C91.7789 72.6737 92.342 72.2077 92.9245 71.8388C95.2544 70.3438 97.4484 69.9555 99.5259 70.6739C101.7 71.3923 101.7 72.2466 99.5259 73.2173C97.5649 74.1493 95.6233 74.7124 93.7011 74.9259C93.1769 74.9842 92.8274 75.2172 92.6138 75.6638C92.4003 76.1103 92.4003 76.5181 92.6138 76.9452C92.8274 77.3724 93.1769 77.5471 93.7011 77.4888C94.1671 77.4306 94.6719 77.3529 95.2156 77.2559C95.7592 77.1588 96.4388 77.0034 97.2736 76.7899C98.1085 76.5763 98.8657 76.3433 99.5647 76.0909C100.264 75.8385 100.982 75.5084 101.7 75.1201C102.419 74.7318 102.943 74.3046 103.254 73.8387C103.564 73.3727 103.778 72.829 103.914 72.2077C104.05 71.5864 103.836 70.9457 103.331 70.2661C102.749 69.3342 101.992 68.6546 101.04 68.208C100.089 67.7615 99.0599 67.5867 98.0114 67.6644C96.9436 67.7421 95.8757 67.9556 94.7884 68.2857C93.7011 68.6158 92.6721 69.0818 91.7207 69.6837C90.7693 70.2855 89.9538 70.8874 89.2743 71.5088C84.6145 76.2074 79.0033 78.7509 72.4795 79.1586C69.1594 79.3722 66.6936 79.178 65.1015 78.615C64.286 78.2461 63.7036 77.8189 63.3541 77.3335C63.0046 76.8481 62.9269 76.3239 63.0823 75.7414C63.2376 75.1784 63.5094 74.6153 63.8977 74.0717C64.286 73.528 64.7908 73.0232 65.4122 72.5572C67.2761 71.0039 69.6448 69.839 72.4795 69.0818C76.2656 68.111 78.4208 68.0721 78.9256 69.0041C79.2945 69.7225 78.9645 70.4603 77.9548 71.2175C76.9452 71.9747 75.5861 72.596 73.8775 73.1203C72.1689 73.6445 70.7127 74.0328 69.5283 74.3241C68.3245 74.6153 67.3732 74.8289 66.6548 74.9842C66.1888 75.0424 65.8976 75.2754 65.8005 75.722C65.7034 76.1686 65.8005 76.5763 66.1111 76.9646C66.4218 77.3529 66.8295 77.4888 67.3537 77.3918C68.4993 77.1782 69.4895 77.0035 70.305 76.8481C71.1204 76.6928 72.2466 76.4016 73.6833 75.9938C75.1007 75.5861 76.2851 75.1395 77.217 74.6735C78.149 74.2076 79.0421 73.5862 79.8964 72.7708C80.7507 71.9747 81.2749 71.0816 81.4885 70.1108C81.7603 69.0818 81.6244 68.2469 81.1002 67.6062C80.576 66.9654 79.8382 66.5577 78.848 66.3635C77.8577 66.1888 76.9064 66.0917 76.0132 66.0917C75.1201 66.0917 74.2658 66.1694 73.4892 66.3247C70.635 66.8295 67.9168 67.8391 65.3539 69.3342C64.2084 69.9943 63.3347 70.7709 62.5774 71.5864C62.4221 71.334 62.2668 71.0816 61.9561 70.9651C61.5096 70.8098 61.1018 70.9263 60.7523 71.2758C60.597 71.4893 60.0728 72.1106 59.1602 73.1785C58.2477 74.2464 57.607 74.9648 57.2186 75.3337C56.8303 75.722 56.2673 76.3239 55.51 77.1199C54.7528 77.916 54.0539 78.5761 53.4131 79.0809C52.7724 79.6052 52.0734 80.0712 51.355 80.4789C51.0444 80.6925 50.6949 80.8672 50.3454 81.0225C49.9959 81.1779 49.5882 81.3138 49.1805 81.4497C48.7727 81.5856 48.4427 81.5468 48.2097 81.3332C47.9767 81.139 47.8796 80.7895 47.9378 80.3236C47.9378 80.0712 48.0349 79.7799 48.2097 79.4693C49.1805 77.7413 50.8891 76.3627 51.9958 74.693C52.6365 73.7416 53.2384 72.6737 53.2384 71.5282C53.219 69.2759 50.6755 68.7323 48.8698 68.6934C47.9378 68.674 47.0641 68.7129 46.2681 68.8488C45.4526 68.9847 44.5206 69.1206 43.4722 69.2759C42.4043 69.4312 41.5888 69.5283 41.0258 69.5866C39.6861 69.6837 38.5794 69.7225 37.7639 69.6642C40.2492 66.5771 41.0452 63.956 40.1715 61.859C39.6473 60.5194 38.657 59.801 37.1814 59.7233C35.7058 59.6456 34.2691 60.0534 32.8711 60.9271C31.4732 61.8008 30.5606 62.791 30.1529 63.8589C29.6287 65.1986 29.6675 66.5189 30.2694 67.8003C30.8713 69.0818 31.8032 70.1108 33.1041 70.8874C32.3275 71.6641 31.6091 72.3048 30.7742 72.9844C29.9976 73.6057 29.1044 74.2852 28.1336 75.0424C27.1434 75.7997 26.1338 76.5569 25.1048 77.3335C24.0563 78.1102 23.1632 78.7703 22.3865 79.3528C24.1922 75.489 25.9396 71.9941 27.59 68.907C27.9006 68.2469 27.7647 67.6644 27.2017 67.1984C26.6386 66.7324 26.095 66.7907 25.5707 67.3537C24.9494 68.0333 24.2699 68.6934 23.5515 69.373C23.0273 68.344 22.4254 67.5285 21.7264 66.9266C21.0274 66.3247 20.2119 65.9752 19.28 65.8393C18.348 65.7034 17.4355 65.684 16.5618 65.7616C15.688 65.8393 14.6202 65.9946 13.3776 66.2665C10.8923 66.7907 8.62066 67.878 6.58199 69.5477C4.5239 71.2175 3.28129 73.1979 2.81531 75.4696C2.54348 76.7705 2.65998 77.7801 3.12596 78.5373C3.59194 79.2945 4.31033 79.7411 5.26171 79.8964C6.21309 80.0517 7.2033 80.0906 8.17409 80.0129C9.1643 79.9352 10.1351 79.7799 11.1253 79.5081C15.0667 78.382 18.7752 76.4598 22.2506 73.7804C20.7944 76.7705 19.2217 78.615 17.8626 81.8186C17.8626 81.8186 10.0574 84.9834 4.155 90.4781C-1.39794 95.6427 -1.08729 103.273 4.25208 100.244C9.59145 97.2154 20.1343 84.5368 20.1343 84.5368C21.3187 83.4495 22.6584 82.3234 24.134 81.1779C25.6096 80.0323 27.2017 78.8091 28.9103 77.5859C30.6189 76.3433 31.9974 75.2948 33.0264 74.4017C33.1235 74.3435 33.2012 74.2658 33.2594 74.1687C34.0749 73.4892 34.9098 72.7514 35.7447 71.9165C36.4242 72.0718 37.1426 72.1689 37.9192 72.2271C38.6959 72.2854 39.5113 72.2854 40.3268 72.266C41.1423 72.2466 41.8995 72.1883 42.5402 72.1106C43.181 72.033 43.977 71.9359 44.909 71.8388C45.8409 71.7417 46.5399 71.6641 47.0059 71.6058C47.103 71.6058 47.2 71.6058 47.7049 71.5282C48.598 71.3146 49.3552 71.3146 49.9959 71.4893C50.6367 71.6641 50.6755 72.2271 50.1124 73.1591C48.6562 75.5473 46.3457 77.3723 45.3361 80.0129C45.2002 80.343 45.1614 80.6731 45.1808 80.9837C45.2196 81.2944 45.2779 81.605 45.3749 81.9157C45.7439 83.003 46.5205 83.6631 47.7437 83.9155C48.9669 84.1679 50.0348 84.0708 50.9667 83.6049C51.8987 83.236 52.7724 82.77 53.6073 82.2069C54.4228 81.6438 55.3159 80.906 56.2478 79.9935C57.1798 79.081 57.8788 78.4014 58.3448 77.8966C58.7719 77.45 59.4709 76.654 60.4029 75.5667C60.2281 76.3433 60.2087 77.0811 60.4805 77.7024C60.8106 78.4791 61.2766 79.1198 61.8785 79.644C62.4609 80.1488 63.2376 80.576 64.1695 80.8866C65.1015 81.1973 65.9946 81.4303 66.8489 81.5856C67.7032 81.7409 68.5381 81.8186 69.373 81.8186C76.1103 81.9739 81.9739 80.3041 86.9444 76.7899C87.0415 77.7218 87.4104 78.5179 88.0317 79.1974C89.5267 80.6925 91.9731 81.3526 95.332 81.2167C97.8755 81.0614 100.516 80.576 103.254 79.7411C105.991 78.9256 108.38 78.0325 110.36 77.1199C111.971 76.3627 113.932 75.3919 116.068 74.3046C115.195 76.5375 114.185 78.7509 113.428 80.9837C113.214 81.6633 113.428 82.1292 114.088 82.4205C114.748 82.7117 115.233 82.5952 115.602 82.071L115.913 81.9157C118.301 79.8964 121.408 77.7024 125.252 75.3337C128.009 73.6251 130.203 72.4407 131.873 71.7806C131.97 71.7223 132.106 71.6835 132.261 71.6252C132.727 71.4117 133.096 71.2563 133.387 71.1593C133.659 71.0622 134.028 70.9845 134.474 70.9263C134.921 70.868 135.232 70.9651 135.445 71.1981C135.659 71.4311 135.775 71.7806 135.834 72.2466C135.872 72.7125 135.853 73.5086 135.756 74.6347C135.659 75.7802 135.581 76.6734 135.562 77.3529C135.523 78.0325 135.775 78.6732 136.261 79.2945C136.766 79.9158 137.542 80.2459 138.629 80.3042C140.027 80.3624 141.581 79.9741 143.25 79.178C144.92 78.382 146.26 77.6053 147.25 76.8675C148.24 76.1297 149.522 75.0813 151.153 73.7416C151.405 73.528 151.599 73.3921 151.696 73.2756C152.065 72.8679 152.182 72.4601 152.085 72.0718C151.988 71.6835 151.696 71.4117 151.23 71.2175L151.192 71.1398ZM15.125 75.1978C12.6786 76.3239 10.4069 77.0811 8.29059 77.45C5.84418 77.8577 4.85397 77.2753 5.26171 75.6638C5.72769 73.9552 6.75673 72.4795 8.32942 71.2563C9.92152 70.0137 11.6301 69.1983 13.494 68.7905C14.5813 68.5381 15.3968 68.3634 15.9793 68.2857C16.5423 68.208 17.2219 68.1886 17.9985 68.208C18.7752 68.2275 19.4159 68.4605 19.9401 68.8682C20.4449 69.2759 20.9303 69.8972 21.3381 70.7321C21.3769 70.8292 21.474 70.9457 21.5711 71.0428C19.4353 72.7902 17.2996 74.1881 15.125 75.2172V75.1978ZM4.13559 97.1571C1.96101 98.6522 2.52407 95.468 4.98989 93.0798C10.6011 87.6822 16.1734 85.0222 16.1734 85.0222C16.1734 85.0222 6.89264 95.2544 4.13559 97.1571ZM36.1912 67.0819C35.7835 67.645 35.2787 68.2663 34.7156 68.9458C34.0943 68.6934 33.6089 68.344 33.24 67.9362C32.2498 66.7519 32.0168 65.6257 32.541 64.5773C33.0653 63.5288 33.9972 62.8298 35.3369 62.5192C36.2689 62.3056 36.929 62.325 37.2785 62.558C37.6474 62.791 37.7833 63.1987 37.6668 63.7618C37.5503 64.3249 37.3756 64.8879 37.1232 65.4704C36.8514 66.0335 36.5407 66.5771 36.1912 67.1013V67.0819Z" fill="var(--fill-0, white)"/>
<path id="Vector_10" d="M65.3539 48.7145C59.2961 52.4229 51.7045 53.9568 44.1712 53.9568C23.8427 53.9568 4.5239 45.8409 4.5239 27.0075C4.5239 8.17409 24.5417 0 44.6371 0C46.1904 0 47.0447 0.0776636 48.132 0.232991C54.7334 0.776636 67.9168 5.55295 67.9168 11.8825L67.8391 12.5038C66.2859 13.5135 63.6453 14.659 61.626 14.659C56.1119 14.659 58.2865 3.92201 50.9861 1.68918C49.4329 1.2232 46.404 0.601893 44.8701 0.601893C27.1046 0.621309 19.4936 12.8145 19.4936 28.4055C19.4936 43.9964 26.8716 53.3355 44.3265 53.3355C51.4715 53.3355 60.8494 50.1707 63.4123 47.1612C62.0144 37.5892 58.5972 30.9489 51.8599 29.2598L31.9197 32.3469C29.3568 30.9489 29.4345 25.2407 29.4345 25.2407L29.7452 24.697C30.6771 24.3864 32.1527 24.231 33.7837 24.231C38.7541 24.231 65.1209 26.3085 65.3733 26.5415V48.6951L65.3539 48.7145Z" fill="var(--fill-0, white)"/>
<path id="Vector_11" d="M141.95 27.2599C141.95 43.3169 127.679 54.1315 107.506 54.1315C87.3327 54.1315 73.2173 43.3169 73.2173 27.2599C73.2173 11.203 87.1774 0.465981 107.506 0.465981C127.834 0.465981 141.95 11.203 141.95 27.2599ZM126.98 28.9491C128.3 17.1442 124.728 2.31049 110.379 1.32028C96.1863 0.310654 89.3519 15.7657 88.2647 25.5513C86.9444 37.2785 90.5169 52.2676 104.788 53.2578C119.155 54.2674 125.815 39.4337 126.98 28.9297V28.9491Z" fill="var(--fill-0, white)"/>
<g id="Group_2">
<g id="Group_3">
<path id="Vector_12" d="M109.913 25.629C109.913 25.629 110.146 25.4154 110.146 25.7066C110.146 26.0173 109.02 27.4541 108.962 27.5123C109.001 27.5123 109.389 27.357 109.409 27.5512C109.409 27.7065 109.156 28.0171 109.059 28.1336C109.098 28.1142 109.176 28.1142 109.273 28.2307C109.447 28.4249 108.457 29.7646 108.399 29.8228C108.418 29.8228 108.535 29.7452 108.593 29.8422C108.651 29.9587 107.622 31.5897 107.622 31.5897C107.622 31.5897 107.836 31.4343 107.952 31.5897C108.069 31.7256 107.215 32.9682 107.215 32.9682C107.215 32.9682 107.409 32.8323 107.448 33.007C107.486 33.1818 106.516 35.6864 106.516 35.6864H106.36L106.186 35.6476C106.186 35.6476 105.525 33.473 105.525 33.3759C105.525 33.2788 105.72 33.3565 105.72 33.3565C105.72 33.3565 104.982 31.8227 105.001 31.7644C105.021 31.7256 105.37 31.8032 105.37 31.8032C105.37 31.8032 104.36 30.2888 104.36 30.1723C104.36 30.0558 104.788 30.0752 104.788 30.0752C104.788 30.0752 104.186 28.619 104.186 28.4443C104.186 28.2501 104.593 28.386 104.593 28.386C104.593 28.386 104.011 26.9881 104.05 26.8522C104.069 26.7163 104.36 26.7357 104.36 26.7357C104.36 26.7357 103.7 24.93 103.7 24.7747C103.7 24.6194 104.225 24.8912 104.225 24.8912C104.225 24.8912 103.933 22.969 103.972 22.8137C104.011 22.6584 104.419 22.969 104.419 22.969C104.419 22.969 104.535 21.2604 104.593 21.1051C104.652 20.9498 104.982 21.1827 105.001 21.1827C105.001 21.1051 104.962 19.6101 105.04 19.3382C105.137 19.047 105.487 19.3965 105.525 19.4159C105.525 19.3771 105.584 17.8626 105.681 17.7267C105.778 17.5714 106.127 17.9209 106.127 17.9209C106.127 17.9209 106.399 16.2705 106.554 16.154C106.71 16.0375 107.02 16.3482 107.02 16.3482C107.02 16.3482 107.389 15.2997 107.603 15.0473C107.816 14.7755 107.952 15.2026 107.952 15.2026C107.952 15.2026 108.341 14.0377 108.613 13.727C108.884 13.4358 108.884 13.9406 108.884 13.9406C108.884 13.9406 109.37 12.9698 109.544 12.8145C109.719 12.6592 109.739 12.8533 109.739 12.8533C109.739 12.8533 110.205 11.8825 110.399 11.6495C110.593 11.4165 110.632 11.5719 110.632 11.5719C110.632 11.5719 111.467 9.74678 111.758 9.68853C111.797 9.68853 111.816 9.68853 111.816 9.74678C111.913 10.1351 111.331 12.232 111.331 12.232C111.331 12.232 111.467 12.0961 111.486 12.2514C111.525 12.4068 111.098 13.6882 111.098 13.6882C111.098 13.6882 111.272 13.5717 111.389 13.7076C111.505 13.8435 111.175 14.892 111.175 14.892C111.175 14.892 111.622 14.6008 111.661 14.8532C111.719 15.125 111.137 16.0958 111.137 16.0958C111.137 16.0958 111.564 15.921 111.641 16.0958C111.719 16.2705 111.544 17.0083 111.272 17.3578C111.311 17.3578 111.738 17.2413 111.797 17.4549C111.874 17.6685 111.175 18.6975 111.156 18.7363C111.195 18.7363 111.622 18.6393 111.719 18.8723C111.836 19.1052 111.02 20.542 111.02 20.542C111.02 20.542 111.525 20.4644 111.583 20.542C111.641 20.6197 111.505 21.4157 110.826 22.3477C110.826 22.3477 111.389 22.2118 111.467 22.3865C111.525 22.5613 111.001 23.3379 110.321 24.0175C110.321 24.0175 110.923 23.7456 110.942 24.0175C110.942 24.2893 109.972 25.5319 109.913 25.629Z" fill="var(--fill-0, white)"/>
<path id="Vector_13" d="M106.457 35.667L106.283 35.7447L106.186 35.7835C106.186 35.7835 103.448 33.7642 103.37 33.6672C103.293 33.5701 103.545 33.5895 103.545 33.5895C103.545 33.5895 102.205 32.7934 102.128 32.7158C102.069 32.6381 102.302 32.5799 102.302 32.5799C102.302 32.5799 100.71 31.8615 100.613 31.7256C100.516 31.5897 100.943 31.512 100.943 31.512C100.943 31.512 99.6035 30.813 99.4676 30.5995C99.3317 30.3859 99.72 30.2694 99.72 30.2694C99.72 30.2694 98.3415 29.5122 98.225 29.2792C98.1085 29.0462 98.4968 29.085 98.4968 29.085C98.4968 29.085 97.429 28.1919 97.3125 27.9977C97.1766 27.8036 97.6037 27.7647 97.6037 27.7647C97.6037 27.7647 96.3999 26.7551 96.3223 26.5415C96.2446 26.328 96.6717 26.2697 96.6717 26.2697C96.6717 26.2697 95.5845 25.0077 95.5068 24.8135C95.4291 24.6194 95.7786 24.6194 95.7786 24.6194C95.7786 24.6194 94.8855 23.3767 94.8466 23.1632C94.8078 22.9496 95.0991 22.9302 95.0991 22.9302C95.0991 22.9302 94.0894 21.7458 94.0118 21.5128C93.9341 21.2798 94.3224 21.2798 94.3224 21.2798C94.3224 21.2798 93.7011 20.5032 93.7011 20.2119C93.7011 19.9207 94.0894 20.0955 94.0894 20.0955C94.0894 20.0955 93.4875 18.8528 93.371 18.5228C93.274 18.1927 93.7205 18.348 93.7205 18.348C93.7205 18.348 93.0992 16.6783 93.1963 16.4647C93.2934 16.2705 94.8272 17.649 94.8272 17.649C94.8272 17.649 94.7884 17.1831 94.9631 17.2413C95.1185 17.319 95.9534 18.6198 95.9534 18.6198C95.9534 18.6198 96.1087 18.2509 96.1864 18.1927C96.264 18.1539 96.7106 19.1441 96.7494 19.2023C96.7494 19.1635 96.7494 18.7946 96.9242 18.8723C97.0989 18.9499 97.5455 20.0566 97.5843 20.1343C97.5843 20.0955 97.6425 19.6683 97.8367 19.7265C98.0503 19.8042 98.5163 21.0274 98.5163 21.0274C98.5163 21.0274 98.5939 20.6197 98.8852 20.7944C99.1958 20.9692 99.5647 22.1924 99.5647 22.1924C99.5647 22.1924 99.8171 21.6681 99.9919 21.8817C100.167 22.0759 100.536 23.435 100.536 23.435C100.536 23.435 100.633 23.0273 100.788 23.0855C100.943 23.1437 101.39 24.6776 101.39 24.6776C101.39 24.6776 101.565 24.3087 101.798 24.464C102.031 24.6194 102.166 26.0173 102.166 26.0173C102.166 26.0173 102.244 25.6872 102.399 25.8426C102.555 25.9979 102.535 27.2599 102.535 27.2599C102.535 27.2599 102.594 26.9687 102.807 27.0852C103.021 27.2211 103.215 28.7161 103.215 28.7161C103.215 28.7161 103.331 28.4249 103.487 28.5025C103.642 28.5802 103.836 30.2694 103.836 30.2694C103.836 30.2694 103.914 29.9005 104.089 29.9976C104.263 30.0946 104.516 31.7644 104.516 31.7644C104.516 31.7644 104.71 31.3955 104.788 31.4926C104.846 31.5897 105.098 33.2012 105.098 33.2012C105.098 33.2012 105.176 33.007 105.273 33.0847C105.37 33.1624 106.399 35.6282 106.399 35.6282L106.457 35.667Z" fill="var(--fill-0, white)"/>
<path id="Vector_14" d="M120.883 23.435C120.883 23.435 121.272 23.3573 121.233 23.5515C121.194 23.7456 120.165 24.4058 120.107 24.4252C120.146 24.4252 120.573 24.3864 120.553 24.5999C120.514 24.8135 119.466 25.4737 119.408 25.5125C119.447 25.5125 119.815 25.5125 119.699 25.8426C119.583 26.1726 118.456 26.7745 118.456 26.7745C118.456 26.7745 119.019 26.9298 118.845 27.1434C118.689 27.3376 117.408 27.9589 117.408 27.9589C117.408 27.9589 117.835 27.9589 117.796 28.1336C117.757 28.289 116.34 29.0268 116.34 29.0268C116.34 29.0268 116.728 29.1433 116.631 29.3957C116.534 29.6481 115.175 30.0558 115.175 30.0558C115.175 30.0558 115.505 30.0558 115.389 30.25C115.272 30.4247 114.01 30.6577 114.01 30.6577C114.01 30.6577 114.321 30.6577 114.224 30.8907C114.146 31.1237 112.69 31.6091 112.69 31.6091C112.69 31.6091 113.001 31.6673 112.962 31.8227C112.923 31.978 111.389 32.4634 111.292 32.5022C111.331 32.5022 111.661 32.5022 111.603 32.6964C111.544 32.8905 109.952 33.4342 109.952 33.4342C109.952 33.4342 110.36 33.5507 110.263 33.6477C110.185 33.7254 108.632 34.2885 108.632 34.2885C108.632 34.2885 108.846 34.3273 108.787 34.4438C108.729 34.5603 106.457 36.0165 106.457 36.0165L106.36 35.9388L106.205 35.8223C106.205 35.8223 107.758 32.7158 107.855 32.6381C107.933 32.5605 107.972 32.7934 107.972 32.7934C107.972 32.7934 108.515 31.3178 108.574 31.2596C108.632 31.1819 108.748 31.4149 108.748 31.4149C108.748 31.4149 109.156 29.7257 109.273 29.6092C109.389 29.4927 109.544 29.8811 109.544 29.8811C109.544 29.8811 109.972 28.4443 110.166 28.2695C110.36 28.0948 110.535 28.4637 110.535 28.4637C110.535 28.4637 111.02 26.9687 111.234 26.8134C111.447 26.658 111.467 27.0269 111.467 27.0269C111.467 27.0269 112.146 25.8231 112.302 25.6678C112.457 25.5125 112.573 25.9008 112.573 25.9008C112.573 25.9008 113.331 24.5417 113.544 24.4252C113.738 24.3087 113.874 24.7164 113.874 24.7164C113.874 24.7164 114.923 23.4156 115.078 23.2991C115.253 23.1826 115.33 23.5321 115.33 23.5321C115.33 23.5321 116.398 22.4254 116.592 22.3477C116.806 22.27 116.884 22.5613 116.884 22.5613C116.884 22.5613 117.854 21.3575 118.087 21.241C118.32 21.1245 118.379 21.5128 118.379 21.5128C118.379 21.5128 119.039 20.7556 119.311 20.6973C119.602 20.6391 119.485 21.0662 119.485 21.0662C119.485 21.0662 120.592 20.2314 120.903 20.076C121.194 19.9207 121.136 20.3867 121.136 20.3867C121.136 20.3867 122.67 19.4741 122.883 19.5324C123.097 19.5906 122.048 21.2992 122.029 21.3381C122.068 21.3381 122.495 21.2216 122.456 21.3963C122.417 21.5711 121.291 22.6195 121.291 22.6195C121.291 22.6195 121.699 22.6972 121.757 22.7554C121.815 22.8137 120.903 23.4544 120.864 23.4932L120.883 23.435Z" fill="var(--fill-0, white)"/>
<path id="Vector_15" d="M106.496 35.8029L106.419 35.9L106.302 36.0359C106.302 36.0359 103.098 36.1912 102.71 36.2301C102.322 36.2689 102.574 36.0359 102.594 36.0165C102.574 36.0165 101.176 36.3854 100.904 36.4242C100.633 36.4825 100.943 36.1136 100.963 36.0747C100.924 36.0747 99.4482 36.2106 99.2152 36.1912C98.9822 36.1718 99.3123 35.8029 99.3317 35.7835C99.2929 35.7835 97.7008 35.8612 97.662 35.7641C97.6037 35.6476 98.0503 35.3563 98.0503 35.3563C98.0503 35.3563 96.6912 35.2593 96.4388 35.1428C96.1863 35.0457 96.73 34.7933 96.73 34.7933C96.73 34.7933 95.5262 34.5409 95.4097 34.4632C95.2932 34.3856 95.6621 34.1526 95.6621 34.1526C95.6621 34.1526 94.5166 33.8031 94.3418 33.706C94.1865 33.6089 94.5748 33.3953 94.5748 33.3953C94.5748 33.3953 93.4875 33.1041 93.4099 32.9876C93.3322 32.8517 93.6235 32.7158 93.6235 32.7158C93.6235 32.7158 92.9633 32.4828 92.808 32.4051C92.6527 32.3275 92.9051 32.1916 92.9051 32.1916C92.9051 32.1916 90.7111 31.279 90.6528 31.0266C90.5946 30.7936 93.041 31.1431 93.041 31.1431C93.041 31.1431 92.9051 30.9489 93.0604 30.8907C93.2157 30.8324 94.2836 31.2208 94.2836 31.2208C94.2836 31.2208 94.1283 30.9684 94.2836 30.9295C94.4389 30.8907 95.5845 31.3373 95.5845 31.3373C95.5845 31.3373 95.5456 30.9489 95.6815 30.9489C95.8174 30.9489 96.8271 31.5314 96.8271 31.5314C96.8271 31.5314 96.8271 31.2013 96.9436 31.1819C97.0601 31.1819 98.0891 31.7256 98.0891 31.7256C98.0891 31.7256 98.0891 31.279 98.3027 31.4149C98.5163 31.5508 99.3123 32.1333 99.3123 32.1333C99.3123 32.1333 99.3123 31.8032 99.5065 31.8421C99.7006 31.8809 100.768 32.7158 100.807 32.7352C100.807 32.6964 100.691 32.3663 100.807 32.3857C100.943 32.4051 102.05 33.3371 102.05 33.3371C102.05 33.3371 102.05 33.0459 102.166 33.0847C102.264 33.1235 103.176 33.939 103.351 34.0749C103.312 34.0167 103.215 33.9002 103.351 33.8807C103.545 33.8419 106.477 35.8029 106.477 35.8029H106.496Z" fill="var(--fill-0, white)"/>
<path id="Vector_16" d="M120.301 34.5603C120.301 34.5603 120.514 34.6768 120.379 34.7933C120.262 34.9098 119.117 35.0069 119.117 35.0069C119.117 35.0069 119.369 35.1816 119.233 35.2787C119.117 35.3758 117.874 35.4728 117.874 35.4728C117.874 35.4728 118.087 35.8029 117.971 35.8612C117.854 35.9194 116.69 35.8223 116.69 35.8223C116.69 35.8223 116.825 36.133 116.748 36.1718C116.651 36.2301 115.486 36.1718 115.486 36.1718C115.486 36.1718 115.68 36.5601 115.427 36.5407C115.175 36.5019 114.204 36.3271 114.204 36.3271C114.204 36.3271 114.36 36.6184 114.165 36.6766C113.971 36.7349 112.593 36.4048 112.593 36.4048C112.593 36.4048 112.865 36.696 112.729 36.7349C112.593 36.7737 111.195 36.4048 111.195 36.4048C111.195 36.4048 111.311 36.6766 111.195 36.6766C111.078 36.6766 109.661 36.2689 109.661 36.2689C109.661 36.2689 109.933 36.3466 109.777 36.4631C109.622 36.5796 106.613 35.9194 106.613 35.9194V35.7641L106.652 35.667C106.652 35.667 109.02 34.2885 109.37 34.0749C109.7 33.8613 109.583 34.1914 109.564 34.2302C109.564 34.2302 110.69 33.2983 110.923 33.1429C111.156 32.9682 111.02 33.4924 111.02 33.4924C111.02 33.4924 112.321 32.7352 112.554 32.6575C112.787 32.5799 112.632 33.0847 112.632 33.0847C112.632 33.0847 114.068 32.3081 114.165 32.3857C114.263 32.4634 113.991 32.9294 113.991 32.9294C113.991 32.9294 115.253 32.444 115.544 32.4245C115.816 32.4245 115.447 32.8711 115.447 32.8711C115.447 32.8711 116.651 32.5993 116.767 32.6187C116.903 32.6187 116.67 33.007 116.67 33.007C116.67 33.007 117.854 32.8323 118.049 32.8517C118.223 32.8711 117.99 33.2012 117.971 33.2206C118.029 33.2206 119.078 33.0264 119.194 33.1041C119.311 33.1818 119.136 33.4148 119.117 33.4342C119.155 33.4342 119.815 33.3565 119.99 33.3565C120.165 33.3565 119.99 33.5895 119.99 33.5895C119.99 33.5895 122.378 33.4924 122.534 33.6672C122.689 33.8613 120.32 34.5797 120.32 34.5797L120.301 34.5603Z" fill="var(--fill-0, white)"/>
<g id="Group_4">
<path id="Vector_17" d="M106.321 36.0747C106.321 36.0747 105.778 37.0067 105.622 37.0844C105.467 37.162 105.564 36.8902 105.564 36.8902C105.564 36.8902 105.137 37.7057 104.943 37.8222C104.768 37.9192 104.846 37.6863 104.846 37.6863C104.846 37.6863 104.322 38.5794 104.03 38.7347C103.739 38.89 103.875 38.4629 103.875 38.4629C103.875 38.4629 102.943 39.4531 102.73 39.5114C102.516 39.5502 102.73 39.1036 102.73 39.1036C102.73 39.1036 101.234 40.3462 100.924 40.3268C100.613 40.3074 101.623 38.6182 101.623 38.6182C101.623 38.6182 101.39 38.6571 101.409 38.56C101.409 38.4629 102.419 37.7833 102.419 37.7833C102.419 37.7833 102.069 37.7251 102.147 37.628C102.205 37.5115 103.234 37.0067 103.234 37.0067C103.234 37.0067 103.04 36.8902 103.157 36.8125C103.254 36.7155 104.166 36.4825 104.166 36.4825C104.166 36.4825 103.953 36.3854 104.127 36.3077C104.302 36.2301 105.351 36.133 105.351 36.133C105.351 36.133 105.079 36.0747 105.312 35.9971C105.545 35.9 106.205 35.8417 106.205 35.8417L106.283 35.9971L106.36 36.133L106.321 36.0747Z" fill="var(--fill-0, white)"/>
<path id="Vector_18" d="M106.321 36.0747C106.321 36.0747 105.778 37.0067 105.622 37.0844C105.467 37.162 105.564 36.8902 105.564 36.8902C105.564 36.8902 105.137 37.7057 104.943 37.8222C104.768 37.9192 104.846 37.6863 104.846 37.6863C104.846 37.6863 104.322 38.5794 104.03 38.7347C103.739 38.89 103.875 38.4629 103.875 38.4629C103.875 38.4629 102.943 39.4531 102.73 39.5113C102.516 39.5502 102.73 39.1036 102.73 39.1036C102.73 39.1036 101.234 40.3462 100.924 40.3268C100.924 40.3268 103.37 37.0649 106.263 35.9582L106.341 36.0942L106.321 36.0747Z" fill="var(--fill-0, white)"/>
</g>
<g id="Group_5">
<path id="Vector_19" d="M112.263 39.9967C112.127 40.055 111.098 39.356 111.098 39.356C111.098 39.356 111.156 39.6084 110.942 39.5502C110.729 39.4919 109.855 38.6959 109.855 38.6959C109.855 38.6959 109.933 38.8706 109.777 38.9095C109.622 38.9289 108.865 38.1911 108.807 38.1522C108.807 38.1717 108.826 38.3658 108.71 38.2881C108.574 38.2105 107.758 37.3368 107.719 37.2979C107.719 37.2979 107.719 37.4727 107.583 37.4533C107.428 37.4339 106.593 36.4242 106.593 36.4242L106.302 36.0942L106.38 35.9582L106.496 35.7447L106.943 35.9C106.943 35.9 108.38 36.366 108.69 36.4436C109.001 36.5407 108.884 36.6572 108.884 36.6572C108.884 36.6572 109.603 36.8902 109.719 36.9873C109.836 37.0844 109.642 37.2009 109.642 37.2009C109.642 37.2009 110.574 37.628 110.671 37.7445C110.768 37.861 110.535 37.8804 110.535 37.8804C110.535 37.8804 111.311 38.3852 111.311 38.4823C111.311 38.5794 111.195 38.5406 111.195 38.5406C111.195 38.5406 111.816 39.0648 111.816 39.1424C111.816 39.2201 111.661 39.1813 111.661 39.1813C111.661 39.1813 112.418 39.9579 112.282 39.9967H112.263Z" fill="var(--fill-0, white)"/>
<path id="Vector_20" d="M111.098 39.3366C111.098 39.3366 111.156 39.589 110.942 39.5308C110.729 39.4725 109.855 38.6765 109.855 38.6765C109.855 38.6765 109.933 38.8512 109.777 38.89C109.622 38.9095 108.865 38.1717 108.807 38.1328C108.807 38.1522 108.826 38.3464 108.71 38.2687C108.574 38.1911 107.758 37.3174 107.719 37.2785C107.719 37.2785 107.719 37.4533 107.583 37.4339C107.428 37.4144 106.593 36.4048 106.593 36.4048L106.302 36.0747L106.38 35.9388C108.729 36.9096 112.282 39.9968 112.282 39.9968C112.146 40.055 111.117 39.356 111.117 39.356L111.098 39.3366Z" fill="var(--fill-0, white)"/>
</g>
</g>
<path id="Vector_21" d="M106.438 35.8612C106.438 35.8612 106.535 38.2493 107.389 41.55C107.933 43.6469 108.865 45.6274 108.865 45.6274H107.739C107.739 45.6274 106.147 39.8026 106.05 36.0553C106.05 36.0553 106.224 35.5893 106.438 35.8417V35.8612Z" fill="var(--fill-0, white)"/>
</g>
<g id="Group_6">
<g id="Group_7">
<path id="Vector_22" d="M91.0217 110.418C91.6624 110.263 92.6138 109.37 93.6817 107.564C93.2934 107.098 92.9439 105.428 93.6623 104.069C94.8078 101.856 96.1475 102.671 95.4485 105.04C94.6137 107.972 92.6721 110.865 91.177 111.408C90.5169 111.641 89.2743 110.709 89.4102 108.768C89.8179 103.04 94.1283 95.6233 96.73 93.4681C97.8561 92.5362 98.9046 92.2449 97.8367 95.0991C97.196 96.9047 94.4001 102.302 90.1868 108.36C89.9927 109.777 90.2257 110.612 91.0411 110.438L91.0217 110.418ZM96.7106 96.1281C97.9726 93.4875 97.5649 93.041 95.798 95.5068C93.4487 98.7687 91.2547 103.681 90.4198 106.962C93.5264 102.031 96.2834 97.0212 96.7106 96.1281ZM94.1089 104.729C93.7788 105.758 94.0118 106.283 94.303 106.341C95.5068 103.914 94.5748 103.137 94.1089 104.729Z" fill="var(--fill-0, white)"/>
<path id="Vector_23" d="M99.5453 106.982C97.5843 110.671 95.8757 111.04 95.798 108.38C95.7204 105.836 97.4484 103.098 97.8755 102.652C98.2833 102.225 98.8269 102.613 98.7298 102.768C98.6327 102.885 96.6912 105.331 96.6329 108.127C96.6329 109.176 97.3319 109.04 98.1668 107.836C99.4871 106.011 101.351 101.798 101.487 101.603C101.623 101.332 102.244 101.7 102.108 102.011C101.429 103.661 100.749 105.72 100.108 107.875C100.943 106.807 101.7 105.836 102.302 104.904C102.594 104.496 102.594 105.525 102.497 105.681C101.798 106.846 100.691 108.224 99.5259 109.719C98.3998 113.466 97.2931 117.117 96.2446 118.942C95.0991 120.922 93.7399 122.126 92.9827 121.446C92.2255 120.825 92.6915 118.398 94.2448 115.971C95.8369 113.447 97.4096 111.331 98.8463 109.467C99.2152 108.166 99.5065 107.098 99.5259 106.982H99.5453ZM93.5458 120.845C94.0118 121.194 95.468 119.621 97.4484 114.204C97.7008 113.583 98.0114 112.457 98.3609 111.253C97.3707 112.573 96.4193 113.894 95.701 115.156C93.371 119.097 93.1963 120.592 93.5458 120.825V120.845Z" fill="var(--fill-0, white)"/>
<path id="Vector_24" d="M125.699 83.799C124.32 84.6921 118.903 90.7305 115.699 94.5943C115.583 94.7302 115.486 94.8467 115.35 94.9826C117.058 97.6425 117.311 103.894 120.126 103.972C120.67 104.011 120.456 104.904 120.32 104.982C117.039 105.991 116.592 98.7687 114.612 95.8174C113.583 96.8659 112.729 97.5066 112.01 97.8367C109.292 105.195 108.049 107.04 107.778 107.37C107.486 107.739 106.846 107.37 107.04 107.059C107.797 105.953 109.001 103.37 110.942 98.225V98.1862C110.379 98.3027 109.933 98.1862 109.661 97.992C108.166 96.8853 109.506 94.8272 111.37 93.9729C111.797 93.7594 112.282 93.6429 112.748 93.6235C114.942 87.9928 115.932 86.0513 116.185 85.6435C116.534 85.1387 117.214 85.5464 117.078 85.7794C116.204 87.5074 114.651 91.1382 113.602 93.6817C114.068 93.7982 114.554 94.0312 114.903 94.4001C115.214 94.0894 115.505 93.7205 115.816 93.3516C123.718 83.4107 124.922 83.2942 125.077 83.1583C125.233 83.0224 126.126 83.5078 125.679 83.799H125.699ZM112.34 94.6331C112.107 94.6525 111.874 94.7496 111.661 94.8272C110.496 95.3709 109.758 96.3805 109.913 96.8077C110.088 97.2931 110.651 97.3707 111.408 97.0989C111.738 96.2058 112.049 95.3903 112.36 94.6331H112.34ZM113.195 94.6525C112.826 95.565 112.593 96.2058 112.515 96.3999L112.476 96.5358C112.981 96.1864 113.544 95.7398 114.107 95.2156C113.835 94.9632 113.544 94.769 113.195 94.6525Z" fill="var(--fill-0, white)"/>
<path id="Vector_25" d="M125.757 102.904C124.475 103.487 123.621 102.555 123.912 100.846C122.145 103.836 121.466 104.244 120.65 104.283C119.699 104.322 118.942 102.613 120.184 99.7783C121.408 96.9824 123.233 95.7786 123.912 95.6039C124.514 95.4485 125.097 95.8369 125.271 96.6135C125.485 96.2058 125.64 95.8951 125.718 95.8563C125.912 95.6815 126.475 96.1281 126.495 96.2834C126.495 96.3805 125.893 97.3901 125.349 98.3415C123.912 101.914 124.728 102.885 126.999 100.807C127.66 100.225 128.358 99.39 129.135 98.2833C129.426 97.8755 129.426 98.8657 129.31 99.0599C129.193 99.2541 127.368 102.186 125.796 102.924L125.757 102.904ZM124.572 98.1085H124.553C124.553 98.1085 124.922 96.3805 123.873 96.6523C121.582 97.2154 119.466 102.962 120.806 103.04C122.087 103.157 124.184 98.8657 124.339 98.6327L124.572 98.1085Z" fill="var(--fill-0, white)"/>
<path id="Vector_26" d="M133.834 93.1186C134.572 93.4875 134.125 95.332 133.154 97.3125C132.3 99.0405 132.358 100.07 133.057 99.953C133.62 99.8365 134.436 99.0793 136.222 96.4776C136.513 96.0698 136.513 97.0601 136.397 97.2542C136.3 97.4484 134.339 100.652 133.115 100.885C132.533 101.001 131.853 100.943 131.776 99.72C131.659 98.3027 132.727 96.4387 133.077 95.468C133.698 93.8758 132.882 93.8564 131.659 95.6233C131.057 96.497 130.184 97.8561 129.543 99.0987C129.096 100.38 128.727 101.39 128.65 101.506C128.339 101.972 127.99 101.254 128.184 100.536C128.708 99.2346 129.523 97.0601 130.708 93.3516C130.805 93.0992 131.446 93.1963 131.465 93.4293C131.465 93.4875 131.077 94.6719 130.591 96.1087C131.29 94.7884 133.018 92.6915 133.853 93.0992L133.834 93.1186Z" fill="var(--fill-0, white)"/>
<path id="Vector_27" d="M139.775 96.9824C137.814 100.671 136.105 101.04 136.028 98.3803C135.95 95.8369 137.678 93.0992 138.105 92.6527C138.513 92.2255 139.057 92.6138 138.96 92.7691C138.862 92.8856 136.921 95.3321 136.863 98.1279C136.863 99.1764 137.562 99.0405 138.396 97.8367C139.717 96.0116 141.581 91.7984 141.736 91.6042C141.872 91.3324 142.493 91.7013 142.357 92.0119C141.678 93.6623 140.998 95.7204 140.357 97.8755C141.192 96.8077 141.95 95.8369 142.571 94.9049C142.862 94.5166 142.862 95.5262 142.765 95.6815C142.066 96.8465 140.959 98.225 139.794 99.72C138.668 103.467 137.562 107.117 136.513 108.943C135.368 110.923 134.008 112.127 133.251 111.467C132.494 110.845 132.96 108.418 134.513 105.972C136.105 103.448 137.678 101.332 139.115 99.4676C139.484 98.1668 139.775 97.1183 139.794 96.9824H139.775ZM133.776 110.845C134.241 111.195 135.698 109.622 137.678 104.205C137.931 103.584 138.241 102.458 138.591 101.254C137.6 102.574 136.649 103.894 135.931 105.156C133.601 109.098 133.426 110.593 133.776 110.826V110.845Z" fill="var(--fill-0, white)"/>
<path id="Vector_28" d="M148.473 97.2542C147.192 97.8367 146.338 96.9047 146.629 95.1961C144.862 98.1862 144.182 98.5745 143.367 98.6327C142.416 98.6716 141.658 96.963 142.901 94.1283C144.124 91.3324 145.949 90.1286 146.648 89.9538C147.25 89.7985 147.833 90.1868 148.007 90.9635C148.221 90.5557 148.376 90.2451 148.454 90.2063C148.648 90.0315 149.211 90.4781 149.231 90.6334C149.231 90.7305 148.629 91.7401 148.085 92.6915C146.648 96.264 147.464 97.2348 149.735 95.1573C150.396 94.5748 151.095 93.7399 151.871 92.6332C152.162 92.2255 152.162 93.2157 152.046 93.4099C151.929 93.604 150.104 96.5358 148.532 97.2736L148.473 97.2542ZM147.289 92.4585H147.27C147.27 92.4585 147.638 90.7305 146.59 91.0023C144.299 91.5654 142.183 97.3125 143.522 97.3901C144.804 97.5066 146.901 93.2157 147.056 92.9827L147.289 92.4585Z" fill="var(--fill-0, white)"/>
</g>
<path id="Vector_29" d="M102.477 114.845C102.322 114.845 102.166 114.748 102.089 114.593C102.011 114.398 102.089 114.165 102.302 114.068C118.126 107.661 134.707 103.079 151.58 100.438C151.813 100.4 152.007 100.555 152.026 100.768C152.065 100.982 151.91 101.196 151.696 101.215C134.882 103.836 118.359 108.418 102.594 114.806C102.555 114.806 102.497 114.826 102.458 114.826L102.477 114.845Z" fill="var(--fill-0, white)"/>
</g>
</g>
<defs>
<clipPath id="clip0_0_121">
<rect width="152.065" height="121.66" fill="white"/>
</clipPath>
</defs>
</svg>
