<svg width="3058" height="104" viewBox="0 0 3058 104" fill="none" xmlns="http://www.w3.org/2000/svg">
<g clip-path="url(#clip0_377_9066)">
<path d="M3038 0H0V104H3038V0Z" fill="#00FF00"/>
<path d="M3019.8 77.5328C3019.74 76.5876 3019.63 75.6526 3019.55 74.7125C3019.4 72.6088 3019.49 70.5152 3019.6 68.4115C3019.67 67.2733 3018.53 66.323 3017.36 66.323C3016.75 66.323 3016.22 66.5542 3015.83 66.9176C3015.59 66.8363 3015.34 66.7804 3015.08 66.7982C3014.84 66.8159 3014.61 66.8388 3014.37 66.8642C3014.31 66.2036 3014.29 65.5405 3014.26 64.885C3014.22 64.0186 3014.19 63.1598 3014.16 62.2985C3014.09 60.3498 3013.98 58.3934 3013.89 56.4447C3013.8 54.501 3013.86 52.5446 3013.89 50.5959C3013.9 49.6609 3013.89 48.731 3013.94 47.796C3013.99 46.8407 3014.06 45.8854 3014.1 44.925C3014.16 43.21 3014.16 41.4848 3014.2 39.7673C3014.25 38.0625 3014.28 36.3576 3014.28 34.6477C3014.58 34.6833 3014.88 34.7214 3015.19 34.7468C3015.68 34.7925 3016.19 34.8027 3016.69 34.8154C3016.92 34.8205 3017.12 34.7595 3017.33 34.7011C3017.35 34.7011 3017.37 34.7138 3017.39 34.7138C3018.53 34.7138 3019.5 33.8194 3019.5 32.7498C3019.49 30.8798 3019.52 29.0047 3019.56 27.1297C3019.61 25.0514 3019.82 22.9807 3019.83 20.9023C3019.84 20.3205 3019.56 19.792 3019.14 19.4109C3018.89 18.7554 3018.36 18.1939 3017.6 18.0161C3017 17.8763 3016.35 17.9017 3015.74 17.8611C3015.2 17.8306 3014.65 17.8026 3014.12 17.7772C3013.27 17.7417 3012.43 17.6731 3011.58 17.668C3010.56 17.6604 3009.54 17.6553 3008.51 17.6553C3006.77 17.6553 3005.03 17.6705 3003.29 17.7188C3001.95 17.7544 3000.82 18.7376 3000.82 20.0156C3000.82 20.6483 3001.14 21.2479 3001.61 21.6823C3001.65 22.1778 3001.68 22.6758 3001.72 23.1712C3000.88 23.2195 3000.03 23.2119 2999.2 23.2246C2998.21 23.2347 2997.22 23.2932 2996.23 23.2982C2994.38 23.3033 2992.54 23.3186 2990.69 23.3084C2988.54 23.2957 2986.4 23.3008 2984.26 23.2754C2982.2 23.25 2980.14 23.161 2978.08 23.1255C2976.21 23.095 2974.35 23.1153 2972.48 23.0696C2970.88 23.034 2969.29 22.9883 2967.69 22.9451C2967.69 22.4496 2967.69 21.9542 2967.69 21.4562C2967.69 20.9836 2967.49 20.5593 2967.19 20.2011C2967.19 20.1782 2967.21 20.1604 2967.21 20.1376C2967.21 19.5761 2966.97 19.0273 2966.54 18.6309C2966.08 18.2066 2965.55 18.0567 2964.93 18.0084C2962.91 17.8433 2960.9 18.0237 2958.88 18.0237C2956.35 18.0288 2953.82 17.9576 2951.29 17.9271C2951.29 17.9271 2951.28 17.9271 2951.27 17.9271C2950.02 17.9271 2949 18.9206 2949 20.0664C2949 20.6915 2949.31 21.2479 2949.78 21.6417C2949.83 22.5589 2949.88 23.4761 2949.9 24.3933C2949.92 25.374 2949.91 26.3497 2949.9 27.3278C2949.89 28.3035 2949.9 29.2868 2949.9 30.2624C2949.91 31.1923 2949.89 32.1222 2950 33.047C2950.06 33.606 2950.19 34.0684 2950.63 34.48C2951.04 34.8586 2951.6 35.072 2952.18 35.072C2952.37 35.072 2952.55 35.0161 2952.73 34.9678C2953.62 34.9628 2954.5 34.9399 2955.39 34.9196C2955.36 36.8785 2955.38 38.8374 2955.31 40.7963C2955.24 42.679 2955.17 44.5667 2954.99 46.4418C2954.91 47.3565 2954.78 48.2686 2954.79 49.1883C2954.79 50.1487 2954.81 51.104 2954.81 52.0619C2954.81 53.9827 2954.79 55.9009 2954.8 57.8217C2954.82 59.4326 2954.9 61.0434 2954.99 62.6517C2955.07 63.8865 2955.11 65.1187 2955.2 66.3459C2954.6 66.3383 2954.01 66.3256 2953.41 66.323C2952.58 66.3205 2951.87 66.7626 2951.46 67.3851C2950.84 67.756 2950.39 68.3759 2950.4 69.0975C2950.42 70.2256 2950.48 71.3562 2950.47 72.4792C2950.47 73.3837 2950.46 74.2882 2950.44 75.1953C2950.42 76.0668 2950.42 76.9357 2950.41 77.8072C2950.41 78.1857 2950.42 78.5643 2950.46 78.9403C2950.51 79.5374 2950.56 80.0938 2950.89 80.6223C2950.9 80.6477 2950.93 80.6629 2950.95 80.6858C2951.29 81.448 2952.1 82.0019 2953.03 81.9943C2955.53 81.9689 2958.03 81.9486 2960.53 81.974C2961.27 81.9841 2962.01 82.0375 2962.76 82.0324C2963.45 82.0273 2964.16 82.0172 2964.84 82.0832C2964.79 82.0756 2964.73 82.0705 2964.68 82.0629C2965.14 82.0985 2965.57 82.0451 2966 81.8088C2966.49 81.5395 2966.86 81.0974 2967.01 80.5867C2967.04 80.5029 2967.02 80.414 2967.03 80.3276C2967.69 79.9947 2968.16 79.3621 2968.16 78.6227C2968.16 78.4805 2968.17 78.3407 2968.17 78.1984C2972.44 77.9977 2976.7 77.8681 2980.98 77.9469C2983.1 77.9825 2985.23 78.0079 2987.35 78.0968C2989.3 78.1806 2991.24 78.2848 2993.19 78.295C2994.85 78.3051 2996.52 78.3483 2998.19 78.3534C2999.28 78.3534 3000.37 78.3458 3001.46 78.3153C3001.51 78.9861 3001.56 79.6543 3001.66 80.3225C3001.76 80.6553 3001.94 80.95 3002.2 81.194C3002.44 81.4099 3002.72 81.5522 3003.03 81.6488C3003.45 82.2407 3004.13 82.6701 3004.93 82.6549C3006.92 82.6142 3008.92 82.4999 3010.91 82.4821C3011.36 82.4821 3011.81 82.4872 3012.26 82.4974C3013.52 82.5177 3014.77 82.5431 3016 82.3043C3016.55 82.1975 3016.97 81.8545 3017.26 81.4302C3018.29 81.6005 3019.49 81.039 3019.71 80.0328C3019.89 79.1944 3019.84 78.3737 3019.8 77.5328ZM3011.3 22.0304C3011.76 22.0253 3012.22 22.0939 3012.68 22.1193C3013.07 22.1397 3013.47 22.1448 3013.86 22.1778C3014.36 22.2184 3014.85 22.2515 3015.35 22.2565C3015.34 23.8521 3015.32 25.4452 3015.3 27.0433C3015.29 28.2247 3015.29 29.4062 3015.29 30.5876C3014.85 30.5597 3014.41 30.5393 3013.97 30.5165C3012.97 30.4631 3011.95 30.5063 3010.95 30.5114C3009.72 30.5216 3008.5 30.5063 3007.27 30.4961C3006.94 30.4911 3006.6 30.4936 3006.27 30.4885C3006.25 29.2004 3006.27 27.9148 3006.24 26.6266C3006.22 25.1581 3006.17 23.687 3006.11 22.2159C3006.7 22.1956 3007.29 22.1727 3007.87 22.1524C3009.01 22.1168 3010.16 22.0406 3011.3 22.0304ZM2959.97 22.1448C2960.69 22.1448 2961.42 22.1448 2962.14 22.16C2962.46 22.1702 2962.78 22.1829 2963.11 22.1981C2963.13 23.1763 2963.17 24.1519 2963.21 25.1301C2963.26 26.1591 2963.25 27.1932 2963.26 28.2298C2963.27 29.0759 2963.35 29.9219 2963.38 30.7655C2963.38 30.8112 2963.39 30.8595 2963.39 30.9077C2962.08 30.895 2960.77 30.8773 2959.47 30.8976C2957.71 30.9255 2955.95 30.8722 2954.18 30.8366C2954.18 30.5622 2954.16 30.2853 2954.16 30.0083C2954.16 29.0479 2954.16 28.0875 2954.15 27.1297C2954.13 25.4807 2954.12 23.8318 2954.09 22.1829C2955.69 22.1651 2957.28 22.1448 2958.88 22.1448C2959.24 22.1498 2959.6 22.1448 2959.97 22.1448ZM2962.84 77.9901C2962.11 77.9748 2961.37 77.9698 2960.63 77.9545C2959.6 77.9291 2958.57 77.8707 2957.54 77.8402C2956.66 77.8173 2955.77 77.8148 2954.89 77.8072C2954.86 76.8518 2954.86 75.8914 2954.86 74.9463C2954.83 73.5209 2954.85 72.093 2954.85 70.6677C2956.15 70.6626 2957.44 70.6575 2958.74 70.6499C2959.42 70.6448 2960.09 70.6347 2960.76 70.6296C2961.28 70.6245 2961.81 70.6093 2962.32 70.6702C2962.13 70.6448 2961.93 70.6194 2961.74 70.5966C2962.45 70.6906 2963.16 70.7312 2963.87 70.7465C2963.87 73.1602 2963.87 75.5739 2963.95 77.9875C2963.85 77.9901 2963.75 77.9825 2963.66 77.985C2963.37 77.9901 2963.11 78.0003 2962.84 77.9901ZM2997.02 74.5322C2995.06 74.5118 2993.11 74.4686 2991.17 74.4229C2989.12 74.3721 2987.09 74.2374 2985.04 74.1841C2984.05 74.1587 2983.07 74.1485 2982.08 74.1485C2980.98 74.1485 2979.89 74.1612 2978.78 74.179C2975.26 74.24 2971.73 74.2146 2968.21 74.3416C2968.25 72.8019 2968.36 71.2622 2968.39 69.7175C2968.39 69.2957 2968.22 68.9222 2967.98 68.5894C2967.94 67.4841 2966.95 66.5492 2965.75 66.5593C2964.95 66.5644 2964.16 66.5542 2963.37 66.5441C2963.17 66.5441 2962.96 66.5441 2962.76 66.5441C2962.33 66.5492 2961.89 66.5492 2961.45 66.5238C2960.77 66.4882 2960.09 66.4729 2959.41 66.4475C2959.23 64.8697 2959.23 63.2818 2959.18 61.6964C2959.15 60.7969 2959.09 59.895 2959.09 58.9956C2959.08 58.0758 2959.11 57.1612 2959.09 56.2439C2959.06 54.3206 2959.08 52.3922 2959.06 50.4612C2959.06 49.5161 2959.04 48.576 2959.03 47.6309C2959.02 46.7416 2959.17 45.8498 2959.19 44.9605C2959.22 44.1551 2959.2 43.3497 2959.23 42.5443C2959.26 41.6779 2959.32 40.8191 2959.39 39.9578C2959.51 38.2682 2959.58 36.5787 2959.64 34.8891C2960.54 34.9069 2961.44 34.9475 2962.34 34.9628C2962.83 34.9729 2963.32 34.9729 2963.81 34.9729C2964.22 34.9729 2964.63 34.9729 2965.04 34.9729C2965.25 34.9729 2965.43 34.9119 2965.63 34.8611C2965.64 34.8611 2965.65 34.8662 2965.66 34.8662C2966.76 34.8662 2967.94 33.9414 2967.83 32.8412C2967.76 32.1502 2967.77 31.454 2967.75 30.7629C2967.72 29.9219 2967.69 29.0733 2967.7 28.2273C2967.7 27.7572 2967.69 27.2872 2967.69 26.8146C2969.3 26.8299 2970.91 26.8349 2972.52 26.8299C2974.89 26.8197 2977.26 26.8095 2979.63 26.8705C2981.68 26.9239 2983.72 27.0052 2985.77 27.0357C2986.89 27.056 2988.01 27.0509 2989.14 27.0458C2990.1 27.0407 2991.07 27.0407 2992.03 27.0458C2993.65 27.0611 2995.26 27.0458 2996.88 26.9772C2997.75 26.9366 2998.62 26.9086 2999.49 26.8781C3000.3 26.8451 3001.11 26.8019 3001.91 26.84C3001.95 28.2882 3001.96 29.7365 3001.96 31.1847C3001.6 31.5556 3001.37 32.0333 3001.37 32.5643C3001.37 33.6898 3002.38 34.668 3003.6 34.6477C3005.69 34.6147 3007.79 34.5486 3009.89 34.5435C3009.9 36.6955 3009.94 38.8425 3009.95 40.9894C3009.96 42.0235 3009.96 43.0575 3009.96 44.0865C3009.95 45.0927 3009.87 46.0912 3009.83 47.0897C3009.76 48.9012 3009.74 50.7102 3009.74 52.5218C3009.75 53.5254 3009.75 54.5315 3009.78 55.53C3009.81 56.5056 3009.9 57.4787 3009.94 58.4493C3010.07 61.2873 3010.27 64.1202 3010.3 66.9582C3008.32 66.8972 3006.34 66.7854 3004.36 66.6838C3004.33 66.6838 3004.29 66.6813 3004.26 66.6813C3003.03 66.6813 3002.01 67.7586 3002.01 68.8714C3002.01 68.8917 3002.02 68.9044 3002.02 68.9247C3001.57 69.3135 3001.27 69.8572 3001.27 70.4695C3001.28 71.811 3001.31 73.15 3001.34 74.4915C2999.9 74.5449 2998.46 74.5449 2997.02 74.5322ZM3014.79 78.1984C3014.71 78.2111 3014.64 78.2213 3014.57 78.2315C3014.02 78.2772 3013.47 78.2721 3012.92 78.2721C3012.12 78.2772 3011.31 78.2874 3010.5 78.2924C3008.91 78.3102 3007.32 78.3102 3005.73 78.3178C3005.69 77.3727 3005.68 76.4275 3005.71 75.4849C3005.75 74.024 3005.77 72.5631 3005.78 71.0996C3007.35 71.153 3008.92 71.2063 3010.49 71.2114C3011.4 71.2114 3012.3 71.2216 3013.21 71.186C3013.83 71.1606 3014.45 71.0564 3015.07 70.9446C3015.07 72.154 3015.11 73.3609 3015.22 74.5677C3015.29 75.4875 3015.4 76.4021 3015.48 77.3219C3015.5 77.5963 3015.52 77.8758 3015.54 78.1527C3015.5 78.1527 3015.47 78.14 3015.43 78.14C3015.23 78.1425 3015.01 78.1654 3014.79 78.1984Z" fill="#111918"/>
<path d="M821.525 85.6553C815.721 85.6553 811 80.9387 811 75.1537C811 69.3687 815.721 64.6596 821.525 64.6596C823.49 64.6596 825.427 65.2329 827.133 66.3087L827.36 66.4502L853.763 45.8045L853.735 45.5848C853.624 44.8812 853.56 44.4569 853.56 44.0325C853.56 38.2401 858.278 33.5346 864.081 33.5346C869.88 33.5346 874.606 38.2438 874.606 44.0325C874.606 45.6332 874.208 47.2302 873.428 48.7602L873.317 48.9873L883.941 62.3404L884.192 62.2548C885.242 61.9309 886.3 61.7634 887.354 61.7634C889.426 61.7634 891.439 62.3702 893.173 63.5316L893.424 63.688L926.104 33.3671L926.004 33.1214C925.475 31.8371 925.209 30.5044 925.209 29.1457C925.209 23.3607 929.93 18.6553 935.733 18.6553C941.537 18.6553 946.238 23.357 946.238 29.1382C946.238 34.9269 941.517 39.636 935.714 39.636C934.095 39.636 932.488 39.234 930.948 38.4374L930.714 38.322L897.377 69.2608L897.441 69.4841C897.728 70.5228 897.863 71.4013 897.863 72.2538C897.863 78.035 893.141 82.7553 887.338 82.7553C881.535 82.7553 876.813 78.0313 876.813 72.2538C876.813 70.3403 877.362 68.4902 878.448 66.7517L878.587 66.5246L868.337 53.6406L868.075 53.7374C866.81 54.2623 865.465 54.5229 864.081 54.5229C861.683 54.5229 859.344 53.7002 857.482 52.2037L857.248 52.0101L856.83 52.0175L831.461 71.848L831.536 72.1012C831.882 73.2254 832.045 74.197 832.045 75.1463C832.045 80.9387 827.324 85.6553 821.525 85.6553ZM821.525 71.4385C819.468 71.4385 817.794 73.1063 817.794 75.1537C817.794 77.2123 819.468 78.8764 821.525 78.8764C823.581 78.8764 825.256 77.2123 825.256 75.1537C825.252 73.1063 823.581 71.4385 821.525 71.4385ZM887.342 68.5349C886.499 68.5349 885.719 68.7955 885.075 69.298C884.144 70.0053 883.611 71.0812 883.611 72.2501C883.611 74.3012 885.286 75.969 887.342 75.969C889.398 75.969 891.073 74.3012 891.073 72.2501C891.073 70.1989 889.398 68.5349 887.342 68.5349ZM864.077 40.3136C862.021 40.3136 860.346 41.9813 860.346 44.0325C860.346 45.1567 860.855 46.2139 861.742 46.9287C862.275 47.3531 863.214 47.6285 864.141 47.6285C864.873 47.6285 865.911 47.461 866.71 46.6607C867.414 45.9608 867.804 45.0264 867.804 44.0325C867.804 41.985 866.129 40.3136 864.077 40.3136ZM935.714 25.4267C933.657 25.4267 931.983 27.0833 931.983 29.1382C931.983 31.1894 933.657 32.8571 935.714 32.8571C937.77 32.8571 939.445 31.1894 939.445 29.1382C939.449 27.087 937.77 25.4267 935.714 25.4267Z" fill="black"/>
<path d="M2514.39 62.9169C2514.39 60.1643 2516.07 57.6467 2518.73 56.4158L2524.86 53.5784L2506.55 19.6553H2501.31L2483 53.5784L2489.13 56.4158C2491.79 57.6467 2493.46 60.1643 2493.46 62.9169V63.2707H2488.23V82.6553H2519.63V63.2707H2514.39V62.9169ZM2491.47 52.0809L2490.02 51.4121L2501.31 30.4913V48.7322H2506.55V30.4913L2517.84 51.4097L2516.39 52.0785C2511.93 54.1454 2509.16 58.2985 2509.16 62.9169V63.2707H2498.7V62.9169C2498.7 58.2985 2495.93 54.1453 2491.47 52.0809ZM2514.39 77.8091H2493.46V68.1168H2514.39V77.8091Z" fill="#111918"/>
<path fill-rule="evenodd" clip-rule="evenodd" d="M2867.75 20.9403C2868.81 20.5129 2869.89 20.4135 2871 20.6415C2872.11 20.841 2873.07 21.3534 2873.87 22.1796L2914.47 64.5341V21.368H2925.58V77.911C2925.58 78.7088 2925.42 79.4498 2925.11 80.1337C2924.82 80.8173 2924.43 81.4158 2923.91 81.9286C2923.43 82.4129 2922.84 82.798 2922.16 83.0829C2921.48 83.3678 2920.75 83.5096 2919.98 83.5096C2919.3 83.5096 2918.6 83.3813 2917.89 83.1249C2917.2 82.8684 2916.59 82.4554 2916.05 81.8856L2875.45 39.4891V82.6552H2864.33V26.1112C2864.34 24.9717 2864.65 23.9457 2865.28 23.0341C2865.93 22.094 2866.76 21.3962 2867.75 20.9403ZM2582.93 21.368C2586.6 21.368 2590.01 22.0087 2593.14 23.2909C2596.28 24.5731 2598.98 26.3543 2601.26 28.6337C2603.54 30.8845 2605.32 33.5912 2606.61 36.7538C2607.92 39.8878 2608.57 43.3068 2608.57 47.0106V57.0116C2608.57 60.7439 2607.92 64.1774 2606.61 67.3114C2605.32 70.4456 2603.54 73.1531 2601.26 75.4325C2598.98 77.6832 2596.28 79.4492 2593.14 80.7313C2590.01 82.0135 2586.6 82.6552 2582.93 82.6552H2552.93C2552.13 82.6551 2551.39 82.5122 2550.7 82.2274C2550.02 81.9425 2549.42 81.5585 2548.91 81.0741C2548.42 80.5612 2548.04 79.962 2547.75 79.2782C2547.47 78.5946 2547.33 77.8541 2547.33 77.0565V26.9667C2547.33 26.1975 2547.47 25.4708 2547.75 24.787C2548.04 24.1034 2548.42 23.5048 2548.91 22.9921C2549.42 22.4792 2550.02 22.0797 2550.7 21.7948C2551.39 21.51 2552.13 21.3681 2552.93 21.368H2582.93ZM2677.78 32.4794H2633.24V67.0555C2633.24 68.5084 2633.63 69.6193 2634.4 70.3886C2635.17 71.1579 2636.29 71.5429 2637.77 71.5429H2677.78V82.6552H2637.69C2636.15 82.6551 2634.47 82.384 2632.65 81.8427C2630.82 81.3013 2629.13 80.4184 2627.56 79.1932C2626.02 77.9396 2624.72 76.33 2623.67 74.3641C2622.64 72.3697 2622.13 69.9332 2622.13 67.0555V26.9667C2622.13 26.1975 2622.27 25.4707 2622.56 24.787C2622.84 24.1033 2623.23 23.5049 2623.71 22.9921C2624.23 22.4792 2624.82 22.0797 2625.51 21.7948C2626.19 21.5099 2626.93 21.368 2627.73 21.368H2677.78V32.4794ZM2744.5 32.4794H2706.68C2704.57 32.4794 2702.92 33.121 2701.72 34.4032C2700.55 35.6853 2699.97 37.3808 2699.97 39.4891C2699.97 41.6259 2700.55 43.3215 2701.72 44.5751C2702.92 45.8001 2704.57 46.413 2706.68 46.413H2732.32C2733.52 46.4415 2734.79 46.6123 2736.13 46.9257C2737.47 47.2106 2738.79 47.666 2740.1 48.2928C2741.44 48.9197 2742.71 49.7177 2743.91 50.6864C2745.1 51.6266 2746.16 52.7664 2747.07 54.1054C2748.01 55.4445 2748.75 56.9835 2749.29 58.7216C2749.83 60.4595 2750.1 62.4253 2750.1 64.619C2750.1 66.8129 2749.82 68.7939 2749.25 70.5604C2748.71 72.2983 2747.98 73.8366 2747.07 75.1757C2746.16 76.5147 2745.09 77.6544 2743.86 78.5946C2742.64 79.5349 2741.37 80.3049 2740.06 80.9032C2738.75 81.5015 2737.41 81.9425 2736.04 82.2274C2734.7 82.5123 2733.43 82.6551 2732.24 82.6552H2689.37V71.5429H2732.24C2734.38 71.5428 2736.03 70.9156 2737.2 69.662C2738.39 68.4084 2738.99 66.7272 2738.99 64.619C2738.99 63.5934 2738.83 62.6534 2738.52 61.7987C2738.21 60.944 2737.75 60.2029 2737.15 59.5761C2736.58 58.9493 2735.87 58.4648 2735.02 58.1229C2734.19 57.781 2733.26 57.6102 2732.24 57.6102H2706.68C2704.89 57.6102 2702.95 57.2966 2700.87 56.6698C2698.79 56.0145 2696.85 54.9743 2695.06 53.5497C2693.29 52.1251 2691.81 50.2589 2690.61 47.9511C2689.44 45.6433 2688.86 42.8226 2688.86 39.4891C2688.86 36.1555 2689.44 33.3486 2690.61 31.0692C2691.81 28.7613 2693.29 26.8952 2695.06 25.4706C2696.85 24.0175 2698.79 22.9773 2700.87 22.3505C2702.95 21.6952 2704.89 21.368 2706.68 21.368H2744.5V32.4794ZM2773.45 82.6552H2762.34V21.368H2773.45V82.6552ZM2849.32 32.4794H2804.15C2802.69 32.4794 2801.58 32.8645 2800.81 33.6337C2800.05 34.4029 2799.66 35.5426 2799.66 37.0526V67.0555C2799.66 68.4801 2800.05 69.5908 2800.81 70.3886C2801.61 71.1578 2802.72 71.5428 2804.15 71.5429H2838.72V57.6102H2809.15V46.413H2844.24C2845.03 46.413 2845.78 46.5693 2846.46 46.8827C2847.14 47.1675 2847.73 47.5663 2848.21 48.079C2848.72 48.5918 2849.12 49.1902 2849.41 49.8739C2849.69 50.5292 2849.83 51.2423 2849.83 52.0116V77.0565C2849.83 77.854 2849.69 78.5946 2849.41 79.2782C2849.12 79.962 2848.72 80.5612 2848.21 81.0741C2847.73 81.5583 2847.14 81.9426 2846.46 82.2274C2845.78 82.5123 2845.03 82.6552 2844.24 82.6552H2804.15C2803.12 82.6551 2802.01 82.5412 2800.81 82.3134C2799.65 82.0569 2798.48 81.6719 2797.31 81.1591C2796.17 80.6462 2795.07 79.991 2794.02 79.1932C2792.96 78.367 2792.02 77.3837 2791.2 76.244C2790.4 75.0758 2789.76 73.7365 2789.27 72.2264C2788.79 70.688 2788.55 68.9643 2788.55 67.0555V36.9677C2788.55 35.942 2788.66 34.8447 2788.89 33.6766C2789.15 32.48 2789.53 31.3115 2790.04 30.1718C2790.56 29.0036 2791.23 27.892 2792.05 26.8378C2792.88 25.7837 2793.86 24.8581 2795 24.0604C2796.17 23.2343 2797.51 22.5789 2799.02 22.0946C2800.53 21.6102 2802.24 21.3681 2804.15 21.368H2849.32V32.4794ZM2558.44 71.5429H2582.93C2585.09 71.5429 2587.06 71.2013 2588.83 70.5175C2590.62 69.8052 2592.16 68.8218 2593.44 67.5682C2594.72 66.2861 2595.71 64.7615 2596.39 62.995C2597.1 61.2 2597.46 59.2054 2597.46 57.0116V47.0106C2597.46 44.8453 2597.1 42.8651 2596.39 41.0702C2595.71 39.2752 2594.72 37.7506 2593.44 36.497C2592.16 35.2149 2590.62 34.2315 2588.83 33.5477C2587.06 32.8354 2585.09 32.4794 2582.93 32.4794H2558.44V71.5429ZM2672.78 57.6102H2637.69V46.413H2672.78V57.6102Z" fill="black"/>
<path d="M1678.83 51.6401H1673.37V33.0672L1663.74 50.7078C1663.51 51.1584 1663.18 51.5003 1662.75 51.7282C1662.33 51.9612 1661.87 52.0752 1661.38 52.0752C1660.9 52.0752 1660.47 51.9612 1660.06 51.7282C1659.64 51.4951 1659.32 51.1533 1659.09 50.7078L1649.43 33.0672V51.6401H1644V22.864C1644 22.2114 1644.18 21.6313 1644.55 21.1237C1644.92 20.6162 1645.4 20.2743 1646 20.1034C1646.3 20.0309 1646.59 20.005 1646.88 20.0257C1647.17 20.0464 1647.45 20.1138 1647.72 20.2225C1648 20.3313 1648.24 20.4815 1648.46 20.6783C1648.69 20.8751 1648.88 21.1082 1649.02 21.3827L1661.38 43.7624L1673.73 21.3827C1674.05 20.8337 1674.49 20.4401 1675.06 20.207C1675.62 19.9739 1676.21 19.9377 1676.82 20.0982C1677.41 20.2743 1677.89 20.611 1678.27 21.1186C1678.64 21.6261 1678.83 22.2062 1678.83 22.8588V51.6349L1678.83 51.6401Z" fill="#1A1A1A"/>
<path d="M1714.5 51.6399H1709.07V43.9849H1690V51.6399H1684.57V36.045C1684.57 33.7713 1684.95 31.6737 1685.7 29.7574C1686.45 27.841 1687.49 26.1992 1688.83 24.8215C1690.17 23.4438 1691.74 22.3717 1693.57 21.6052C1695.39 20.8386 1697.38 20.4502 1699.54 20.4502H1711.77C1712.14 20.4502 1712.5 20.5227 1712.83 20.6677C1713.16 20.8127 1713.46 21.0147 1713.7 21.2789C1713.95 21.543 1714.15 21.8434 1714.29 22.1904C1714.43 22.5374 1714.5 22.9104 1714.5 23.2988V51.6399ZM1690 38.3291H1709.07V26.106H1699.54C1699.37 26.106 1699.02 26.1319 1698.48 26.1837C1697.95 26.2355 1697.33 26.3598 1696.62 26.5618C1695.92 26.7638 1695.18 27.0745 1694.4 27.4992C1693.62 27.9187 1692.91 28.4988 1692.25 29.2395C1691.59 29.9801 1691.06 30.902 1690.64 32.0104C1690.21 33.1187 1690 34.4654 1690 36.045V38.3291Z" fill="#1A1A1A"/>
<path d="M1750.7 30.9389C1750.7 32.2286 1750.55 33.3836 1750.25 34.3987C1749.94 35.4139 1749.53 36.3099 1749 37.0868C1748.48 37.8637 1747.88 38.5266 1747.2 39.0756C1746.52 39.6246 1745.8 40.0804 1745.06 40.4326C1744.32 40.79 1743.57 41.0437 1742.81 41.2043C1742.05 41.3649 1741.34 41.4425 1740.67 41.4425L1752 51.6406H1743.61L1732.3 41.4425H1728.4V35.7868H1740.67C1741.35 35.7298 1741.97 35.5796 1742.54 35.3413C1743.1 35.1031 1743.59 34.782 1744 34.3728C1744.41 33.9688 1744.72 33.4768 1744.95 32.9071C1745.17 32.3322 1745.28 31.6796 1745.28 30.9389V27.3704C1745.28 27.0493 1745.24 26.811 1745.17 26.6401C1745.09 26.4744 1744.99 26.3501 1744.87 26.2724C1744.75 26.1947 1744.63 26.1429 1744.5 26.1326C1744.36 26.117 1744.24 26.1118 1744.13 26.1118H1726.23V51.6458H1720.8V23.3047C1720.8 22.911 1720.87 22.5433 1721.01 22.1963C1721.15 21.8493 1721.34 21.5437 1721.58 21.2847C1721.82 21.0258 1722.11 20.8186 1722.45 20.6736C1722.78 20.5286 1723.14 20.4561 1723.53 20.4561H1744.13C1745.34 20.4561 1746.36 20.6839 1747.19 21.1397C1748.03 21.5955 1748.71 22.1704 1749.23 22.8592C1749.75 23.5481 1750.13 24.2887 1750.36 25.0863C1750.58 25.884 1750.7 26.6298 1750.7 27.329V30.9389H1750.7Z" fill="#1A1A1A"/>
<path d="M1761.62 51.6399H1756.19V20.4502H1761.62V51.6399ZM1787.52 51.6399H1779.82L1767.6 38.8937H1763.79V33.1964H1767.6L1779.82 20.4502H1787.52L1772.14 36.045L1787.52 51.6399Z" fill="#1A1A1A"/>
<path d="M1817.76 51.6399H1798.18C1797.43 51.6399 1796.61 51.5 1795.72 51.2255C1794.83 50.951 1794 50.4953 1793.24 49.8686C1792.48 49.2367 1791.85 48.4184 1791.34 47.4084C1790.84 46.3984 1790.58 45.1658 1790.58 43.7V23.2988C1790.58 22.9052 1790.65 22.5374 1790.79 22.1904C1790.93 21.8434 1791.12 21.5378 1791.36 21.2789C1791.61 21.0199 1791.9 20.8127 1792.23 20.6677C1792.56 20.5227 1792.93 20.4502 1793.31 20.4502H1817.75V26.106H1796V43.7C1796 44.4407 1796.19 45.0052 1796.56 45.3988C1796.94 45.7925 1797.49 45.9841 1798.21 45.9841H1817.74V51.6399H1817.76ZM1815.32 38.8937H1798.18V33.1964H1815.32V38.8937Z" fill="#1A1A1A"/>
<path d="M1850.04 26.1118H1838.08V51.6458H1832.66V26.1118H1820.68V20.4561H1850.04V26.1118Z" fill="#1A1A1A"/>
<path d="M1859.49 51.6399H1854.07V20.4502H1859.49V51.6399Z" fill="#1A1A1A"/>
<path d="M1895.74 49.2265C1895.74 49.6305 1895.67 50.0086 1895.52 50.3556C1895.38 50.7026 1895.18 51.003 1894.94 51.2568C1894.69 51.5106 1894.4 51.7074 1894.07 51.8524C1893.74 51.9974 1893.38 52.0699 1893.01 52.0699C1892.68 52.0699 1892.34 52.0026 1891.99 51.8731C1891.65 51.7436 1891.35 51.5313 1891.09 51.2412L1871.26 29.6643V51.6297H1865.83V22.8535C1865.83 22.2735 1865.99 21.7503 1866.3 21.279C1866.61 20.8077 1867.01 20.4555 1867.5 20.2225C1868.02 20.0049 1868.55 19.9531 1869.09 20.0619C1869.63 20.1707 1870.1 20.4348 1870.49 20.8543L1890.31 42.4054V20.44H1895.74V49.2161L1895.74 49.2265Z" fill="#1A1A1A"/>
<path d="M1931.57 48.792C1931.57 49.1959 1931.5 49.574 1931.36 49.921C1931.22 50.2681 1931.03 50.5685 1930.79 50.8222C1930.54 51.076 1930.26 51.278 1929.92 51.4179C1929.59 51.5629 1929.23 51.6354 1928.84 51.6354H1909.26C1908.76 51.6354 1908.23 51.5732 1907.65 51.4489C1907.07 51.3246 1906.5 51.133 1905.94 50.874C1905.38 50.6151 1904.84 50.2732 1904.32 49.8641C1903.81 49.4497 1903.35 48.9525 1902.96 48.3621C1902.56 47.7768 1902.25 47.0931 1902.01 46.3163C1901.77 45.5394 1901.66 44.6692 1901.66 43.6955V28.3856C1901.66 27.8624 1901.71 27.3031 1901.83 26.7023C1901.95 26.1015 1902.14 25.5059 1902.39 24.9206C1902.63 24.3353 1902.96 23.7708 1903.36 23.2373C1903.77 22.6987 1904.25 22.2274 1904.82 21.813C1905.38 21.3987 1906.03 21.0724 1906.77 20.8238C1907.5 20.5752 1908.34 20.4561 1909.27 20.4561H1931.33V26.1118H1909.27C1908.56 26.1118 1908.02 26.3087 1907.64 26.6971C1907.27 27.0855 1907.08 27.6708 1907.08 28.4373V43.7059C1907.08 44.431 1907.27 44.9904 1907.65 45.3892C1908.04 45.788 1908.57 45.9848 1909.27 45.9848H1926.15V38.8943H1911.71V33.1971H1928.84C1929.23 33.1971 1929.59 33.2748 1929.93 33.425C1930.26 33.5752 1930.55 33.7824 1930.79 34.0465C1931.04 34.3055 1931.23 34.6059 1931.37 34.9477C1931.51 35.2895 1931.58 35.6521 1931.58 36.0457V48.792H1931.57Z" fill="#1A1A1A"/>
<path d="M1724.59 62.7598L1705.62 82.5188H1726.17L1745.13 62.7598H1724.59Z" fill="#1A1A1A"/>
<path d="M1683.5 62.7598L1664.54 82.5188H1685.08L1704.05 62.7598H1683.5Z" fill="#1A1A1A"/>
<path d="M1765.67 62.7598L1746.71 82.5188H1767.25L1786.21 62.7598H1765.67Z" fill="#1A1A1A"/>
<path d="M1931.57 82.5188V62.7598L1912.61 82.5188H1931.57Z" fill="#1A1A1A"/>
<path d="M1644 62.7598V82.5188L1662.96 62.7598H1644Z" fill="#1A1A1A"/>
<path d="M1888.91 62.7598L1869.95 82.5188H1890.49L1909.45 62.7598H1888.91Z" fill="#1A1A1A"/>
<path d="M1806.75 62.7598L1787.79 82.5188H1808.33L1827.29 62.7598H1806.75Z" fill="#1A1A1A"/>
<path d="M1847.83 62.7598L1828.87 82.5188H1849.41L1868.37 62.7598H1847.83Z" fill="#1A1A1A"/>
<path d="M2165.9 33.502C2165.9 34.7917 2165.75 35.9466 2165.45 36.9618C2165.14 37.9769 2164.72 38.8729 2164.2 39.6498C2163.68 40.4267 2163.08 41.0897 2162.4 41.6387C2161.72 42.1877 2161 42.6383 2160.26 42.9853C2159.52 43.3323 2158.77 43.5861 2158.01 43.7466C2157.25 43.9072 2156.53 43.9849 2155.87 43.9849H2143.6V38.3291H2155.87C2156.56 38.2721 2157.2 38.1219 2157.76 37.8837C2158.32 37.6454 2158.81 37.3243 2159.21 36.9152C2159.61 36.5112 2159.92 36.0191 2160.15 35.4494C2160.37 34.8745 2160.48 34.2271 2160.48 33.502V30.9331C2160.41 30.2235 2160.27 29.5709 2160.04 28.9753C2159.82 28.3797 2159.52 27.8721 2159.13 27.4526C2158.75 27.0331 2158.29 26.7016 2157.75 26.4634C2157.21 26.2251 2156.58 26.106 2155.87 26.106H2143.64C2142.91 26.106 2142.37 26.3028 2141.99 26.6912C2141.61 27.0797 2141.43 27.6494 2141.43 28.39V51.6399H2136V28.39C2136 26.9398 2136.25 25.7072 2136.76 24.692C2137.27 23.6769 2137.9 22.8586 2138.66 22.2319C2139.42 21.6104 2140.24 21.1546 2141.13 20.8749C2142.02 20.59 2142.84 20.4502 2143.6 20.4502H2155.87C2157.09 20.4502 2158.19 20.6159 2159.16 20.9422C2160.14 21.2685 2161 21.7036 2161.74 22.2474C2162.49 22.7912 2163.12 23.4179 2163.64 24.1275C2164.16 24.8371 2164.6 25.5829 2164.93 26.3546C2165.28 27.1315 2165.52 27.9136 2165.67 28.706C2165.83 29.4984 2165.9 30.2391 2165.9 30.9331V33.502Z" fill="#1A1A1A"/>
<path d="M2200.44 30.938C2200.44 32.2276 2200.29 33.3826 2199.98 34.3977C2199.68 35.4129 2199.26 36.3089 2198.74 37.0858C2198.22 37.8627 2197.62 38.5256 2196.94 39.0746C2196.26 39.6236 2195.54 40.0794 2194.8 40.4316C2194.06 40.789 2193.31 41.0428 2192.54 41.2033C2191.78 41.3639 2191.07 41.4416 2190.41 41.4416L2201.74 51.6396H2193.35L2182.04 41.4416H2178.14V35.7858H2190.41C2191.09 35.7288 2191.71 35.5786 2192.28 35.3404C2192.84 35.1021 2193.32 34.781 2193.74 34.3718C2194.15 33.9679 2194.46 33.4758 2194.69 32.9061C2194.91 32.3312 2195.02 31.6786 2195.02 30.938V27.3694C2195.02 27.0483 2194.98 26.8101 2194.91 26.6392C2194.83 26.4734 2194.73 26.3491 2194.61 26.2714C2194.49 26.1937 2194.37 26.1419 2194.23 26.1316C2194.1 26.116 2193.98 26.1109 2193.87 26.1109H2175.96V51.6448H2170.53V23.3037C2170.53 22.9101 2170.6 22.5423 2170.74 22.1953C2170.88 21.8483 2171.08 21.5427 2171.32 21.2838C2171.56 21.0248 2171.85 20.8176 2172.18 20.6726C2172.52 20.5276 2172.88 20.4551 2173.27 20.4551H2193.87C2195.08 20.4551 2196.1 20.683 2196.93 21.1387C2197.77 21.5945 2198.44 22.1694 2198.97 22.8583C2199.49 23.5471 2199.86 24.2878 2200.09 25.0854C2200.32 25.883 2200.44 26.6288 2200.44 27.328V30.938H2200.44Z" fill="#1A1A1A"/>
<path d="M2237.3 39.0288C2237.3 40.9296 2236.98 42.675 2236.36 44.2702C2235.73 45.8655 2234.86 47.2432 2233.75 48.4033C2232.63 49.5635 2231.32 50.4647 2229.79 51.1121C2228.27 51.7595 2226.61 52.0806 2224.81 52.0806H2217.47C2215.67 52.0806 2214.01 51.7595 2212.48 51.1121C2210.95 50.4647 2209.63 49.5635 2208.51 48.4033C2207.4 47.2432 2206.52 45.8655 2205.89 44.2702C2205.26 42.675 2204.94 40.9296 2204.94 39.0288V33.0674C2204.94 31.1822 2205.26 29.4419 2205.89 27.8364C2206.52 26.236 2207.4 24.8583 2208.51 23.7033C2209.63 22.5483 2210.95 21.6471 2212.48 20.9945C2214.01 20.3419 2215.67 20.0156 2217.47 20.0156H2224.81C2226.61 20.0156 2228.27 20.3419 2229.79 20.9945C2231.32 21.6471 2232.63 22.5483 2233.75 23.7033C2234.86 24.8583 2235.73 26.236 2236.36 27.8364C2236.98 29.4368 2237.3 31.1822 2237.3 33.0674V39.0288ZM2231.87 33.0674C2231.87 31.9487 2231.7 30.9388 2231.36 30.0324C2231.01 29.126 2230.54 28.3491 2229.92 27.7069C2229.3 27.0595 2228.55 26.5622 2227.68 26.2049C2226.82 25.8475 2225.86 25.6714 2224.82 25.6714H2217.47C2216.41 25.6714 2215.45 25.8475 2214.58 26.2049C2213.71 26.5622 2212.96 27.0595 2212.34 27.7069C2211.71 28.3543 2211.23 29.126 2210.89 30.0324C2210.54 30.9388 2210.38 31.9487 2210.38 33.0674V39.0288C2210.38 40.1475 2210.54 41.1575 2210.89 42.0639C2211.23 42.9702 2211.71 43.7471 2212.34 44.3894C2212.96 45.0368 2213.71 45.534 2214.58 45.8914C2215.45 46.2487 2216.41 46.4248 2217.47 46.4248H2224.78C2225.84 46.4248 2226.8 46.2487 2227.67 45.8914C2228.54 45.534 2229.29 45.0368 2229.91 44.3894C2230.54 43.742 2231.02 42.9702 2231.36 42.0639C2231.71 41.1575 2231.87 40.1475 2231.87 39.0288V33.0674H2231.87Z" fill="#1A1A1A"/>
<path d="M2272.52 38.5933C2272.52 40.4941 2272.2 42.2396 2271.57 43.8348C2270.94 45.43 2270.07 46.8025 2268.95 47.9575C2267.84 49.1073 2266.52 50.0137 2264.99 50.6663C2263.46 51.3189 2261.8 51.6452 2260 51.6452H2245.35C2244.96 51.6452 2244.6 51.5726 2244.26 51.4276C2243.93 51.2826 2243.64 51.0806 2243.4 50.832C2243.16 50.5834 2242.96 50.2778 2242.82 49.9308C2242.68 49.5838 2242.61 49.2057 2242.61 48.8017V23.3144C2242.61 22.9208 2242.68 22.5531 2242.82 22.2061C2242.96 21.8591 2243.16 21.5535 2243.4 21.2945C2243.64 21.0355 2243.93 20.8284 2244.26 20.6833C2244.6 20.5383 2244.96 20.4658 2245.35 20.4658H2260C2261.79 20.4658 2263.46 20.7921 2264.99 21.4447C2266.52 22.0973 2267.84 22.9985 2268.95 24.1535C2270.07 25.3085 2270.94 26.6861 2271.57 28.2866C2272.2 29.887 2272.52 31.6324 2272.52 33.5176V38.6089V38.5933ZM2267.09 33.5021C2267.09 32.3989 2266.92 31.3941 2266.58 30.4774C2266.24 29.5658 2265.76 28.7838 2265.13 28.1415C2264.5 27.4941 2263.76 26.9969 2262.89 26.6395C2262.02 26.2822 2261.06 26.1061 2260 26.1061H2248.04V45.9842H2260C2261.06 45.9842 2262.02 45.8081 2262.89 45.4507C2263.76 45.0934 2264.5 44.5961 2265.13 43.9487C2265.76 43.3013 2266.24 42.5296 2266.58 41.6232C2266.92 40.7169 2267.09 39.7069 2267.09 38.5882V33.4969V33.5021Z" fill="#1A1A1A"/>
<path d="M2307.16 48.7913C2307.16 49.1953 2307.09 49.5734 2306.96 49.9204C2306.82 50.2674 2306.62 50.5678 2306.37 50.8216C2306.12 51.0753 2305.83 51.2773 2305.49 51.4172C2305.16 51.5622 2304.8 51.6347 2304.43 51.6347H2292.2C2291.05 51.6347 2289.87 51.5052 2288.7 51.2411C2287.51 50.9821 2286.37 50.5781 2285.26 50.0343C2284.15 49.4905 2283.12 48.7965 2282.14 47.9574C2281.17 47.1184 2280.32 46.1188 2279.59 44.969C2278.86 43.8192 2278.29 42.4984 2277.87 41.012C2277.45 39.5255 2277.24 37.8682 2277.24 36.045V20.4502H2282.67V36.045C2282.67 37.6403 2282.88 38.9869 2283.3 40.0901C2283.73 41.1933 2284.27 42.1152 2284.92 42.8506C2285.58 43.5913 2286.29 44.1714 2287.07 44.5909C2287.85 45.0104 2288.59 45.3212 2289.29 45.5283C2289.99 45.7303 2290.61 45.8598 2291.15 45.9116C2291.69 45.9634 2292.04 45.9893 2292.21 45.9893H2301.74V20.4554H2307.17V48.7965L2307.16 48.7913Z" fill="#1A1A1A"/>
<path d="M2340.26 51.6403H2320.69C2320.18 51.6403 2319.65 51.5781 2319.07 51.4538C2318.5 51.3295 2317.92 51.1379 2317.36 50.8789C2316.8 50.62 2316.26 50.2781 2315.75 49.869C2315.23 49.4546 2314.78 48.9574 2314.38 48.367C2313.98 47.7817 2313.66 47.098 2313.43 46.3211C2313.19 45.5442 2313.08 44.6741 2313.08 43.7004V28.3904C2313.08 27.8673 2313.14 27.308 2313.26 26.7072C2313.38 26.1064 2313.56 25.5107 2313.81 24.9255C2314.06 24.3402 2314.39 23.7757 2314.79 23.2422C2315.19 22.7036 2315.68 22.2323 2316.24 21.8179C2316.8 21.4036 2317.45 21.0773 2318.19 20.8287C2318.93 20.5801 2319.76 20.4609 2320.7 20.4609H2340.27V26.1167H2320.7C2319.99 26.1167 2319.44 26.3135 2319.07 26.702C2318.69 27.0904 2318.5 27.6757 2318.5 28.4422V43.7108C2318.5 44.4359 2318.69 44.9952 2319.08 45.394C2319.47 45.7929 2320 45.9897 2320.7 45.9897H2340.27V51.6455L2340.26 51.6403Z" fill="#1A1A1A"/>
<path d="M2372.44 26.1109H2360.48V51.6448H2355.06V26.1109H2343.08V20.4551H2372.44V26.1109Z" fill="#1A1A1A"/>
<path d="M2381.89 51.6399H2376.47V20.4502H2381.89V51.6399Z" fill="#1A1A1A"/>
<path d="M2419.65 39.0288C2419.65 40.9296 2419.33 42.675 2418.71 44.2702C2418.08 45.8655 2417.21 47.2432 2416.1 48.4033C2414.99 49.5635 2413.67 50.4647 2412.14 51.1121C2410.62 51.7595 2408.96 52.0806 2407.16 52.0806H2399.82C2398.02 52.0806 2396.36 51.7595 2394.83 51.1121C2393.3 50.4647 2391.98 49.5635 2390.86 48.4033C2389.75 47.2432 2388.87 45.8655 2388.24 44.2702C2387.61 42.675 2387.29 40.9296 2387.29 39.0288V33.0674C2387.29 31.1822 2387.61 29.4419 2388.24 27.8364C2388.87 26.236 2389.75 24.8583 2390.86 23.7033C2391.98 22.5483 2393.3 21.6471 2394.83 20.9945C2396.36 20.3419 2398.02 20.0156 2399.82 20.0156H2407.16C2408.96 20.0156 2410.62 20.3419 2412.14 20.9945C2413.67 21.6471 2414.99 22.5483 2416.1 23.7033C2417.21 24.8583 2418.08 26.236 2418.71 27.8364C2419.33 29.4368 2419.65 31.1822 2419.65 33.0674V39.0288ZM2414.22 33.0674C2414.22 31.9487 2414.05 30.9388 2413.71 30.0324C2413.37 29.126 2412.89 28.3491 2412.27 27.7069C2411.65 27.0595 2410.91 26.5622 2410.04 26.2049C2409.17 25.8475 2408.21 25.6714 2407.17 25.6714H2399.82C2398.76 25.6714 2397.8 25.8475 2396.93 26.2049C2396.06 26.5622 2395.32 27.0595 2394.69 27.7069C2394.06 28.3543 2393.58 29.126 2393.24 30.0324C2392.9 30.9388 2392.73 31.9487 2392.73 33.0674V39.0288C2392.73 40.1475 2392.9 41.1575 2393.24 42.0639C2393.58 42.9702 2394.06 43.7471 2394.69 44.3894C2395.32 45.0368 2396.06 45.534 2396.93 45.8914C2397.8 46.2487 2398.76 46.4248 2399.82 46.4248H2407.13C2408.19 46.4248 2409.15 46.2487 2410.02 45.8914C2410.89 45.534 2411.64 45.0368 2412.26 44.3894C2412.89 43.742 2413.37 42.9702 2413.71 42.0639C2414.06 41.1575 2414.22 40.1475 2414.22 39.0288V33.0674H2414.22Z" fill="#1A1A1A"/>
<path d="M2454.91 49.2265C2454.91 49.6305 2454.84 50.0086 2454.69 50.3556C2454.55 50.7026 2454.35 51.003 2454.11 51.2568C2453.86 51.5106 2453.57 51.7074 2453.24 51.8524C2452.91 51.9974 2452.55 52.0699 2452.18 52.0699C2451.84 52.0699 2451.51 52.0026 2451.16 51.8731C2450.82 51.7436 2450.52 51.5313 2450.25 51.2412L2430.43 29.6643V51.6297H2425V22.8535C2425 22.2735 2425.16 21.7503 2425.48 21.279C2425.79 20.8077 2426.19 20.4555 2426.67 20.2225C2427.19 20.0049 2427.72 19.9531 2428.26 20.0619C2428.8 20.1707 2429.27 20.4348 2429.66 20.8543L2449.48 42.4054V20.44H2454.91V49.2161L2454.91 49.2265Z" fill="#1A1A1A"/>
<path d="M2146.17 75.3357C2145.71 75.0923 2145.36 74.7452 2145.1 74.2895C2144.86 73.8337 2144.73 73.3002 2144.73 72.6839C2144.73 72.0675 2144.86 71.5341 2145.1 71.0783C2145.35 70.6225 2145.71 70.2703 2146.17 70.0269C2146.63 69.7835 2147.16 69.6592 2147.76 69.6592C2148.16 69.6592 2148.51 69.7006 2148.83 69.7835C2149.14 69.8663 2149.43 69.9958 2149.69 70.1719V71.5652C2149.46 71.3735 2149.19 71.2337 2148.9 71.1405C2148.61 71.0472 2148.27 71.0058 2147.89 71.0058C2147.34 71.0058 2146.92 71.156 2146.63 71.4512C2146.33 71.7464 2146.18 72.1556 2146.18 72.6839C2146.18 73.2122 2146.33 73.6213 2146.63 73.9166C2146.92 74.217 2147.35 74.362 2147.89 74.362C2148.27 74.362 2148.61 74.3154 2148.91 74.2221C2149.21 74.1289 2149.49 73.9787 2149.76 73.7767V75.1596C2149.25 75.517 2148.59 75.6982 2147.76 75.6982C2147.15 75.6982 2146.62 75.5791 2146.16 75.3357H2146.17Z" fill="#1A1A1A"/>
<path d="M2151.58 75.3201C2151.13 75.0664 2150.77 74.709 2150.51 74.2532C2150.24 73.7974 2150.11 73.2743 2150.11 72.6839C2150.11 72.0934 2150.24 71.5703 2150.51 71.1094C2150.77 70.6536 2151.13 70.2962 2151.58 70.0424C2152.03 69.7887 2152.54 69.6592 2153.1 69.6592C2153.66 69.6592 2154.16 69.7887 2154.62 70.0424C2155.07 70.2962 2155.43 70.6536 2155.69 71.1094C2155.94 71.5703 2156.07 72.0934 2156.07 72.6839C2156.07 73.2743 2155.94 73.7974 2155.69 74.2532C2155.43 74.709 2155.07 75.0664 2154.62 75.3201C2154.16 75.5739 2153.66 75.7034 2153.1 75.7034C2152.54 75.7034 2152.03 75.5739 2151.58 75.3201ZM2153.88 74.1289C2154.11 73.9942 2154.29 73.8078 2154.43 73.5592C2154.57 73.3106 2154.64 73.0205 2154.64 72.6891C2154.64 72.3576 2154.57 72.0675 2154.44 71.8241C2154.3 71.5807 2154.12 71.3891 2153.89 71.2544C2153.65 71.1197 2153.39 71.0524 2153.11 71.0524C2152.82 71.0524 2152.55 71.1197 2152.32 71.2544C2152.09 71.3891 2151.9 71.5807 2151.77 71.8241C2151.63 72.0675 2151.57 72.3576 2151.57 72.6891C2151.57 73.0205 2151.63 73.3106 2151.77 73.5592C2151.9 73.8078 2152.09 73.9994 2152.33 74.1289C2152.56 74.2584 2152.82 74.3257 2153.11 74.3257C2153.4 74.3257 2153.65 74.2584 2153.88 74.1289H2153.88Z" fill="#1A1A1A"/>
<path d="M2156.79 69.7832H2158.18L2160.23 73.2326V69.7832H2161.63V75.5737H2160.25L2158.2 72.1191V75.5737H2156.79V69.7832Z" fill="#1A1A1A"/>
<path d="M2163.8 71.0217H2162.23V69.7891H2166.78V71.0217H2165.21V75.5795H2163.8V71.0217Z" fill="#1A1A1A"/>
<path d="M2167.38 69.7832H2171.32V71.0159H2168.79V72.1035H2170.64V73.2533H2168.79V74.341H2171.32V75.5737H2167.38V69.7832Z" fill="#1A1A1A"/>
<path d="M2172.04 69.7832H2173.43L2175.47 73.2326V69.7832H2176.88V75.5737H2175.49L2173.44 72.1191V75.5737H2172.04V69.7832Z" fill="#1A1A1A"/>
<path d="M2179.04 71.0217H2177.48V69.7891H2182.02V71.0217H2180.45V75.5795H2179.04V71.0217Z" fill="#1A1A1A"/>
<path d="M2186.76 75.3357C2186.3 75.0923 2185.95 74.7452 2185.7 74.2895C2185.45 73.8337 2185.32 73.3002 2185.32 72.6839C2185.32 72.0675 2185.45 71.5341 2185.7 71.0783C2185.94 70.6225 2186.3 70.2703 2186.76 70.0269C2187.22 69.7835 2187.75 69.6592 2188.36 69.6592C2188.75 69.6592 2189.11 69.7006 2189.42 69.7835C2189.73 69.8663 2190.02 69.9958 2190.28 70.1719V71.5652C2190.05 71.3735 2189.79 71.2337 2189.49 71.1405C2189.2 71.0472 2188.86 71.0058 2188.48 71.0058C2187.93 71.0058 2187.51 71.156 2187.22 71.4512C2186.92 71.7464 2186.77 72.1556 2186.77 72.6839C2186.77 73.2122 2186.92 73.6213 2187.22 73.9166C2187.52 74.217 2187.94 74.362 2188.48 74.362C2188.86 74.362 2189.21 74.3154 2189.5 74.2221C2189.81 74.1289 2190.08 73.9787 2190.35 73.7767V75.1596C2189.85 75.517 2189.18 75.6982 2188.35 75.6982C2187.74 75.6982 2187.21 75.5791 2186.76 75.3357H2186.76Z" fill="#1A1A1A"/>
<path d="M2191.06 69.7832H2193.56C2194.21 69.7832 2194.72 69.9541 2195.09 70.296C2195.46 70.6378 2195.64 71.1298 2195.64 71.7721C2195.64 72.2019 2195.55 72.5697 2195.37 72.8752C2195.19 73.1808 2194.94 73.4035 2194.61 73.5537L2195.59 75.5737H2194.14L2193.26 73.7609H2192.47V75.5737H2191.06V69.7832H2191.06ZM2193.31 72.5282C2193.6 72.5282 2193.81 72.4713 2193.97 72.3573C2194.12 72.2434 2194.19 72.0517 2194.19 71.7721C2194.19 71.4924 2194.12 71.2852 2193.97 71.1816C2193.82 71.0729 2193.6 71.0211 2193.31 71.0211H2192.47V72.5282H2193.31H2193.31Z" fill="#1A1A1A"/>
<path d="M2196.36 69.7832H2200.31V71.0159H2197.77V72.1035H2199.63V73.2533H2197.77V74.341H2200.31V75.5737H2196.36V69.7832Z" fill="#1A1A1A"/>
<path d="M2203.09 69.7832H2204.47L2206.68 75.5737H2205.24L2204.8 74.3824H2202.74L2202.3 75.5737H2200.85L2203.08 69.7832H2203.09ZM2204.45 73.2533L2203.78 71.3059L2203.09 73.2533H2204.45Z" fill="#1A1A1A"/>
<path d="M2207.7 71.0217H2206.13V69.7891H2210.68V71.0217H2209.1V75.5795H2207.7V71.0217Z" fill="#1A1A1A"/>
<path d="M2211.28 69.7832H2212.68V75.5737H2211.28V69.7832Z" fill="#1A1A1A"/>
<path d="M2213.4 69.7832H2214.9L2216.31 73.6366L2217.73 69.7832H2219.23L2217.01 75.5737H2215.63L2213.4 69.7832H2213.4Z" fill="#1A1A1A"/>
<path d="M2219.94 69.7832H2223.89V71.0159H2221.35V72.1035H2223.21V73.2533H2221.35V74.341H2223.89V75.5737H2219.94V69.7832Z" fill="#1A1A1A"/>
<path d="M2258.33 69.7832H2259.71L2261.93 75.5737H2260.49L2260.04 74.3824H2257.99L2257.54 75.5737H2256.1L2258.32 69.7832H2258.33ZM2259.7 73.2533L2259.02 71.3059L2258.34 73.2533H2259.7Z" fill="#1A1A1A"/>
<path d="M2262.65 69.7832H2264.65C2265.26 69.7832 2265.79 69.8972 2266.25 70.1302C2266.71 70.3633 2267.05 70.6948 2267.3 71.1298C2267.55 71.5649 2267.67 72.0725 2267.67 72.6525C2267.67 73.6159 2267.4 74.341 2266.86 74.8382C2266.32 75.3354 2265.57 75.5788 2264.61 75.5788H2262.65V69.7884V69.7832ZM2264.73 74.341C2265.21 74.341 2265.58 74.1908 2265.84 73.8852C2266.09 73.5796 2266.22 73.1705 2266.22 72.6525C2266.22 72.176 2266.09 71.7876 2265.84 71.482C2265.58 71.1764 2265.23 71.0211 2264.77 71.0211H2264.06V74.3462H2264.72L2264.73 74.341Z" fill="#1A1A1A"/>
<path d="M2267.71 69.7832H2269.21L2270.62 73.6366L2272.04 69.7832H2273.53L2271.32 75.5737H2269.94L2267.71 69.7832H2267.71Z" fill="#1A1A1A"/>
<path d="M2274.25 69.7832H2278.2V71.0159H2275.66V72.1035H2277.52V73.2533H2275.66V74.341H2278.2V75.5737H2274.25V69.7832Z" fill="#1A1A1A"/>
<path d="M2278.91 69.7832H2281.41C2282.06 69.7832 2282.57 69.9541 2282.94 70.296C2283.3 70.6378 2283.49 71.1298 2283.49 71.7721C2283.49 72.2019 2283.4 72.5697 2283.22 72.8752C2283.04 73.1808 2282.79 73.4035 2282.46 73.5537L2283.44 75.5737H2281.99L2281.11 73.7609H2280.31V75.5737H2278.91V69.7832H2278.91ZM2281.16 72.5282C2281.45 72.5282 2281.66 72.4713 2281.81 72.3573C2281.97 72.2434 2282.04 72.0517 2282.04 71.7721C2282.04 71.4924 2281.97 71.2852 2281.81 71.1816C2281.66 71.0729 2281.45 71.0211 2281.16 71.0211H2280.31V72.5282H2281.16H2281.16Z" fill="#1A1A1A"/>
<path d="M2285.22 71.0208H2283.65V69.7881H2288.2V71.0208H2286.62V75.5785H2285.22V71.0208Z" fill="#1A1A1A"/>
<path d="M2288.8 69.7832H2290.2V75.5737H2288.8V69.7832Z" fill="#1A1A1A"/>
<path d="M2291.77 75.5992C2291.43 75.5318 2291.14 75.4334 2290.92 75.3143V73.9987C2291.21 74.1541 2291.5 74.2681 2291.81 74.3458C2292.12 74.4235 2292.42 74.4597 2292.7 74.4597C2292.96 74.4597 2293.15 74.4183 2293.28 74.3354C2293.42 74.2525 2293.48 74.1334 2293.48 73.978C2293.48 73.8641 2293.45 73.7605 2293.37 73.6776C2293.3 73.5896 2293.2 73.5119 2293.06 73.4394C2292.92 73.3669 2292.71 73.2685 2292.41 73.139C2291.9 72.9111 2291.52 72.6625 2291.29 72.3828C2291.06 72.1083 2290.94 71.7665 2290.94 71.3625C2290.94 71.031 2291.03 70.7358 2291.21 70.4768C2291.39 70.2179 2291.64 70.0159 2291.96 69.8709C2292.28 69.7258 2292.64 69.6533 2293.06 69.6533C2293.39 69.6533 2293.7 69.6792 2293.96 69.7362C2294.22 69.7932 2294.48 69.8812 2294.73 70.0003V71.2848C2294.26 71.031 2293.79 70.9015 2293.32 70.9015C2293.07 70.9015 2292.86 70.943 2292.71 71.031C2292.56 71.1191 2292.48 71.2382 2292.48 71.3987C2292.48 71.5593 2292.56 71.6888 2292.71 71.7872C2292.87 71.8856 2293.15 72.0203 2293.56 72.1912C2293.94 72.3517 2294.23 72.5071 2294.44 72.6625C2294.65 72.8179 2294.8 72.9991 2294.9 73.2011C2294.99 73.4031 2295.04 73.6673 2295.04 73.978C2295.04 74.5115 2294.85 74.931 2294.48 75.2314C2294.11 75.5318 2293.55 75.682 2292.81 75.682C2292.46 75.682 2292.11 75.6458 2291.76 75.5784L2291.77 75.5992Z" fill="#1A1A1A"/>
<path d="M2295.76 69.7832H2297.17V75.5737H2295.76V69.7832Z" fill="#1A1A1A"/>
<path d="M2298.04 69.7832H2299.43L2301.47 73.2326V69.7832H2302.88V75.5737H2301.5L2299.45 72.1191V75.5737H2298.04V69.7832Z" fill="#1A1A1A"/>
<path d="M2305.04 75.3347C2304.58 75.0913 2304.23 74.7443 2303.97 74.2885C2303.72 73.8327 2303.6 73.2992 2303.6 72.6829C2303.6 72.0666 2303.72 71.5331 2303.97 71.0773C2304.22 70.6215 2304.57 70.2694 2305.04 70.0259C2305.5 69.7825 2306.03 69.6582 2306.63 69.6582C2307.03 69.6582 2307.39 69.6996 2307.7 69.7773C2308.01 69.855 2308.3 69.9845 2308.57 70.1606V71.5538C2308.33 71.3622 2308.07 71.2223 2307.78 71.1343C2307.48 71.0462 2307.14 71.0048 2306.76 71.0048C2306.43 71.0048 2306.14 71.0721 2305.88 71.2068C2305.62 71.3415 2305.42 71.5383 2305.28 71.7921C2305.13 72.0459 2305.05 72.3411 2305.05 72.6777C2305.05 73.2008 2305.2 73.6152 2305.49 73.9208C2305.79 74.2263 2306.18 74.3765 2306.69 74.3765C2306.97 74.3765 2307.21 74.3247 2307.4 74.2263V73.2992H2306.55V72.2737H2308.73V75.1586C2308.17 75.516 2307.47 75.6973 2306.64 75.6973C2306.03 75.6973 2305.5 75.5781 2305.04 75.3347H2305.04Z" fill="#1A1A1A"/>
<path d="M2312.9 64.8315C2317.03 64.8315 2320.4 68.3327 2320.4 72.6419C2320.4 76.951 2317.04 80.4522 2312.9 80.4522H2251.77C2247.64 80.4522 2244.27 76.951 2244.27 72.6419C2244.27 68.3327 2247.63 64.8315 2251.77 64.8315H2312.9ZM2312.9 62.7598H2251.77C2246.53 62.7598 2242.29 67.1829 2242.29 72.6419C2242.29 78.1008 2246.53 82.5239 2251.77 82.5239H2312.9C2318.14 82.5239 2322.39 78.1008 2322.39 72.6419C2322.39 67.1829 2318.14 62.7598 2312.9 62.7598Z" fill="#1A1A1A"/>
<path d="M2225.35 64.8315C2229.48 64.8315 2232.85 68.3327 2232.85 72.6419C2232.85 76.951 2229.49 80.4522 2225.35 80.4522H2145.48C2141.35 80.4522 2137.99 76.951 2137.99 72.6419C2137.99 68.3327 2141.35 64.8315 2145.48 64.8315H2225.35ZM2225.35 62.7598H2145.48C2140.24 62.7598 2136 67.1829 2136 72.6419C2136 78.1008 2140.24 82.5239 2145.48 82.5239H2225.35C2230.59 82.5239 2234.84 78.1008 2234.84 72.6419C2234.84 67.1829 2230.59 62.7598 2225.35 62.7598Z" fill="#1A1A1A"/>
<path d="M2346.87 69.7832H2348.37L2349.79 73.6366L2351.21 69.7832H2352.7L2350.48 75.5737H2349.1L2346.88 69.7832H2346.87Z" fill="#1A1A1A"/>
<path d="M2353.42 69.7832H2354.82V75.5737H2353.42V69.7832Z" fill="#1A1A1A"/>
<path d="M2355.7 69.7832H2357.7C2358.31 69.7832 2358.84 69.8972 2359.3 70.1302C2359.75 70.3633 2360.1 70.6948 2360.35 71.1298C2360.6 71.5649 2360.72 72.0725 2360.72 72.6525C2360.72 73.6159 2360.45 74.341 2359.91 74.8382C2359.37 75.3354 2358.61 75.5788 2357.66 75.5788H2355.7V69.7884V69.7832ZM2357.78 74.341C2358.26 74.341 2358.62 74.1908 2358.88 73.8852C2359.14 73.5796 2359.27 73.1705 2359.27 72.6525C2359.27 72.176 2359.14 71.7876 2358.88 71.482C2358.62 71.1764 2358.27 71.0211 2357.82 71.0211H2357.1V74.3462H2357.77L2357.78 74.341Z" fill="#1A1A1A"/>
<path d="M2361.43 69.7832H2365.38V71.0159H2362.84V72.1035H2364.7V73.2533H2362.84V74.341H2365.38V75.5737H2361.43V69.7832Z" fill="#1A1A1A"/>
<path d="M2367.28 75.3201C2366.83 75.0664 2366.47 74.709 2366.21 74.2532C2365.95 73.7974 2365.82 73.2743 2365.82 72.6839C2365.82 72.0934 2365.95 71.5703 2366.21 71.1094C2366.47 70.6536 2366.83 70.2962 2367.28 70.0424C2367.73 69.7887 2368.24 69.6592 2368.8 69.6592C2369.36 69.6592 2369.87 69.7887 2370.32 70.0424C2370.77 70.2962 2371.13 70.6536 2371.39 71.1094C2371.65 71.5703 2371.77 72.0934 2371.77 72.6839C2371.77 73.2743 2371.65 73.7974 2371.39 74.2532C2371.13 74.709 2370.77 75.0664 2370.32 75.3201C2369.87 75.5739 2369.36 75.7034 2368.8 75.7034C2368.25 75.7034 2367.73 75.5739 2367.28 75.3201ZM2369.58 74.1289C2369.81 73.9942 2370 73.8078 2370.13 73.5592C2370.27 73.3106 2370.34 73.0205 2370.34 72.6891C2370.34 72.3576 2370.27 72.0675 2370.14 71.8241C2370.01 71.5807 2369.82 71.3891 2369.59 71.2544C2369.35 71.1197 2369.1 71.0524 2368.81 71.0524C2368.52 71.0524 2368.25 71.1197 2368.02 71.2544C2367.79 71.3891 2367.6 71.5807 2367.47 71.8241C2367.34 72.0675 2367.27 72.3576 2367.27 72.6891C2367.27 73.0205 2367.34 73.3106 2367.47 73.5592C2367.6 73.8078 2367.79 73.9994 2368.03 74.1289C2368.26 74.2584 2368.52 74.3257 2368.81 74.3257C2369.1 74.3257 2369.35 74.2584 2369.58 74.1289H2369.58Z" fill="#1A1A1A"/>
<path d="M2379.17 64.8315C2383.3 64.8315 2386.66 68.3327 2386.66 72.6419C2386.66 76.951 2383.3 80.4522 2379.17 80.4522H2339.32C2335.19 80.4522 2331.83 76.951 2331.83 72.6419C2331.83 68.3327 2335.19 64.8315 2339.32 64.8315H2379.17ZM2379.17 62.7598H2339.32C2334.08 62.7598 2329.84 67.1829 2329.84 72.6419C2329.84 78.1008 2334.08 82.5239 2339.32 82.5239H2379.17C2384.41 82.5239 2388.65 78.1008 2388.65 72.6419C2388.65 67.1829 2384.41 62.7598 2379.17 62.7598Z" fill="#1A1A1A"/>
<path d="M2411.81 69.7835H2414.26C2414.91 69.7835 2415.42 69.9596 2415.81 70.3118C2416.2 70.664 2416.39 71.1612 2416.39 71.7931C2416.39 72.4249 2416.2 72.948 2415.82 73.3054C2415.43 73.6628 2414.91 73.8389 2414.26 73.8389H2413.22V75.5688H2411.81V69.7783V69.7835ZM2414.04 72.6114C2414.32 72.6114 2414.54 72.5492 2414.7 72.4301C2414.87 72.311 2414.95 72.0986 2414.95 71.7982C2414.95 71.4978 2414.87 71.2959 2414.71 71.1871C2414.55 71.0783 2414.32 71.0213 2414.04 71.0213H2413.22V72.6114H2414.04H2414.04Z" fill="#1A1A1A"/>
<path d="M2417.02 69.7832H2418.43V72.0207H2420.61V69.7832H2422.01V75.5737H2420.61V73.2378H2418.43V75.5737H2417.02V69.7832Z" fill="#1A1A1A"/>
<path d="M2424.2 75.3201C2423.75 75.0664 2423.39 74.709 2423.13 74.2532C2422.86 73.7974 2422.73 73.2743 2422.73 72.6839C2422.73 72.0934 2422.86 71.5703 2423.13 71.1094C2423.39 70.6536 2423.75 70.2962 2424.2 70.0424C2424.65 69.7887 2425.16 69.6592 2425.72 69.6592C2426.28 69.6592 2426.78 69.7887 2427.24 70.0424C2427.69 70.2962 2428.05 70.6536 2428.3 71.1094C2428.56 71.5703 2428.69 72.0934 2428.69 72.6839C2428.69 73.2743 2428.56 73.7974 2428.3 74.2532C2428.05 74.709 2427.69 75.0664 2427.24 75.3201C2426.78 75.5739 2426.28 75.7034 2425.72 75.7034C2425.16 75.7034 2424.65 75.5739 2424.2 75.3201ZM2426.49 74.1289C2426.73 73.9942 2426.91 73.8078 2427.05 73.5592C2427.19 73.3106 2427.26 73.0205 2427.26 72.6891C2427.26 72.3576 2427.19 72.0675 2427.06 71.8241C2426.92 71.5807 2426.74 71.3891 2426.5 71.2544C2426.27 71.1197 2426.01 71.0524 2425.72 71.0524C2425.44 71.0524 2425.17 71.1197 2424.94 71.2544C2424.71 71.3891 2424.52 71.5807 2424.39 71.8241C2424.25 72.0675 2424.18 72.3576 2424.18 72.6891C2424.18 73.0205 2424.25 73.3106 2424.39 73.5592C2424.52 73.8078 2424.71 73.9994 2424.94 74.1289C2425.18 74.2584 2425.44 74.3257 2425.73 74.3257C2426.02 74.3257 2426.27 74.2584 2426.5 74.1289H2426.49Z" fill="#1A1A1A"/>
<path d="M2430.42 71.0217H2428.86V69.7891H2433.4V71.0217H2431.83V75.5795H2430.42V71.0217Z" fill="#1A1A1A"/>
<path d="M2435.03 75.3201C2434.58 75.0664 2434.22 74.709 2433.95 74.2532C2433.69 73.7974 2433.56 73.2743 2433.56 72.6839C2433.56 72.0934 2433.69 71.5703 2433.95 71.1094C2434.22 70.6536 2434.58 70.2962 2435.03 70.0424C2435.48 69.7887 2435.99 69.6592 2436.55 69.6592C2437.11 69.6592 2437.61 69.7887 2438.06 70.0424C2438.52 70.2962 2438.87 70.6536 2439.13 71.1094C2439.39 71.5703 2439.52 72.0934 2439.52 72.6839C2439.52 73.2743 2439.39 73.7974 2439.13 74.2532C2438.87 74.709 2438.52 75.0664 2438.06 75.3201C2437.61 75.5739 2437.1 75.7034 2436.55 75.7034C2435.99 75.7034 2435.48 75.5739 2435.03 75.3201ZM2437.32 74.1289C2437.56 73.9942 2437.74 73.8078 2437.88 73.5592C2438.02 73.3106 2438.09 73.0205 2438.09 72.6891C2438.09 72.3576 2438.02 72.0675 2437.89 71.8241C2437.75 71.5807 2437.57 71.3891 2437.33 71.2544C2437.1 71.1197 2436.84 71.0524 2436.55 71.0524C2436.27 71.0524 2436 71.1197 2435.77 71.2544C2435.53 71.3891 2435.35 71.5807 2435.22 71.8241C2435.08 72.0675 2435.01 72.3576 2435.01 72.6891C2435.01 73.0205 2435.08 73.3106 2435.22 73.5592C2435.35 73.8078 2435.54 73.9994 2435.77 74.1289C2436.01 74.2584 2436.27 74.3257 2436.56 74.3257C2436.85 74.3257 2437.09 74.2584 2437.33 74.1289H2437.32Z" fill="#1A1A1A"/>
<path d="M2445.43 64.8315C2449.56 64.8315 2452.93 68.3327 2452.93 72.6419C2452.93 76.951 2449.57 80.4522 2445.43 80.4522H2405.59C2401.46 80.4522 2398.09 76.951 2398.09 72.6419C2398.09 68.3327 2401.45 64.8315 2405.59 64.8315H2445.43ZM2445.43 62.7598H2405.59C2400.35 62.7598 2396.11 67.1829 2396.11 72.6419C2396.11 78.1008 2400.35 82.5239 2405.59 82.5239H2445.43C2450.67 82.5239 2454.92 78.1008 2454.92 72.6419C2454.92 67.1829 2450.67 62.7598 2445.43 62.7598Z" fill="#1A1A1A"/>
<path d="M2051.23 28.8256C2050.73 28.7272 2050.32 28.5874 2050 28.4113V26.5105C2050.41 26.7332 2050.84 26.8989 2051.29 27.0129C2051.74 27.1268 2052.17 27.1786 2052.57 27.1786C2052.95 27.1786 2053.23 27.1165 2053.42 26.9973C2053.61 26.8782 2053.71 26.7073 2053.71 26.4846C2053.71 26.3189 2053.66 26.1738 2053.56 26.0495C2053.45 25.9252 2053.3 25.8113 2053.11 25.7077C2052.91 25.6041 2052.6 25.4591 2052.18 25.2778C2051.44 24.9515 2050.89 24.589 2050.56 24.1902C2050.22 23.7914 2050.05 23.2993 2050.05 22.7192C2050.05 22.2428 2050.18 21.8129 2050.43 21.44C2050.69 21.0671 2051.05 20.7718 2051.51 20.5647C2051.96 20.3575 2052.49 20.2539 2053.09 20.2539C2053.58 20.2539 2054.02 20.2953 2054.4 20.373C2054.78 20.4507 2055.15 20.5802 2055.5 20.7563V22.6105C2054.83 22.2428 2054.15 22.0615 2053.47 22.0615C2053.1 22.0615 2052.81 22.1236 2052.59 22.2479C2052.37 22.3722 2052.26 22.5483 2052.26 22.7814C2052.26 23.0145 2052.37 23.2009 2052.59 23.3459C2052.82 23.491 2053.23 23.6826 2053.82 23.9312C2054.36 24.1643 2054.79 24.3922 2055.09 24.6149C2055.39 24.8376 2055.61 25.0965 2055.75 25.3918C2055.89 25.687 2055.96 26.0599 2055.96 26.5157C2055.96 27.2874 2055.69 27.8934 2055.15 28.3284C2054.61 28.7635 2053.8 28.981 2052.73 28.981C2052.23 28.981 2051.73 28.9292 2051.23 28.8308V28.8256Z" fill="#1A1A1A"/>
<path d="M2056.99 20.4355H2059L2061.95 25.4128V20.4355H2063.98V28.8001H2061.99L2059.02 23.8124V28.8001H2056.99V20.4355Z" fill="#1A1A1A"/>
<path d="M2068.23 20.4355H2070.23L2073.43 28.8001H2071.35L2070.71 27.0754H2067.75L2067.11 28.8001H2065.02L2068.23 20.4355H2068.23ZM2070.2 25.4491L2069.23 22.6367L2068.24 25.4491H2070.2Z" fill="#1A1A1A"/>
<path d="M2074.47 20.4355H2078C2078.93 20.4355 2079.68 20.6893 2080.24 21.2021C2080.79 21.7148 2081.08 22.4244 2081.08 23.3411C2081.08 24.2579 2080.8 25.0089 2080.25 25.5268C2079.69 26.0447 2078.94 26.2985 2078 26.2985H2076.49V28.8001H2074.46V20.4355H2074.47ZM2077.68 24.5168C2078.09 24.5168 2078.41 24.4288 2078.64 24.2527C2078.87 24.0766 2078.99 23.7762 2078.99 23.3411C2078.99 22.9061 2078.87 22.616 2078.64 22.4555C2078.42 22.2949 2078.09 22.2172 2077.68 22.2172H2076.5V24.5117H2077.68V24.5168Z" fill="#1A1A1A"/>
<path d="M2082.07 28.6603C2081.87 28.4479 2081.77 28.1889 2081.77 27.8782C2081.77 27.5674 2081.87 27.2981 2082.07 27.0909C2082.28 26.8838 2082.54 26.7802 2082.84 26.7802C2083.15 26.7802 2083.4 26.8838 2083.6 27.0961C2083.8 27.3085 2083.91 27.5674 2083.91 27.8782C2083.91 28.1889 2083.8 28.4531 2083.6 28.6603C2083.39 28.8726 2083.14 28.9762 2082.84 28.9762C2082.55 28.9762 2082.28 28.8726 2082.07 28.6603ZM2081.84 20.4355H2083.86V26.0447H2081.84V20.4355Z" fill="#1A1A1A"/>
<path d="M2079.82 46.2744C2072.95 46.2744 2067.39 52.07 2067.39 59.2226C2067.39 66.3752 2072.95 72.1709 2079.82 72.1709C2086.68 72.1709 2092.24 66.3752 2092.24 59.2226C2092.24 52.07 2086.68 46.2744 2079.82 46.2744ZM2079.82 66.9916C2075.71 66.9916 2072.36 63.5059 2072.36 59.2226C2072.36 54.9394 2075.71 51.4537 2079.82 51.4537C2083.93 51.4537 2087.27 54.9394 2087.27 59.2226C2087.27 63.5059 2083.93 66.9916 2079.82 66.9916Z" fill="black"/>
<path d="M2099.7 41.0951H2097.21L2092.96 36.4959C2091.08 34.4708 2088.5 33.3262 2085.8 33.3262H2073.83C2071.14 33.3262 2068.55 34.4708 2066.68 36.4959L2062.42 41.0951H2059.94C2054.45 41.0951 2050 45.7306 2050 51.4537V72.1709C2050 77.894 2054.45 82.5294 2059.94 82.5294H2099.7C2105.19 82.5294 2109.64 77.894 2109.64 72.1709V51.4537C2109.64 45.7306 2105.19 41.0951 2099.7 41.0951ZM2104.67 72.1709C2104.67 75.0246 2102.43 77.3501 2099.7 77.3501H2059.94C2057.2 77.3501 2054.97 75.0246 2054.97 72.1709V51.4537C2054.97 48.5999 2057.2 46.2744 2059.94 46.2744H2064.54L2066 44.6895L2070.26 40.0903C2071.19 39.0855 2072.49 38.5055 2073.83 38.5055H2085.8C2087.14 38.5055 2088.45 39.0855 2089.38 40.0903L2093.63 44.6895L2095.1 46.2744H2099.7C2102.43 46.2744 2104.67 48.5999 2104.67 51.4537V72.1709Z" fill="black"/>
<path d="M2094.75 34.6987L2098.27 38.5055H2099.7C2101.76 38.5055 2103.71 39.0337 2105.43 39.9712L2109.64 35.9158H2104.67L2109.64 30.7365H2104.67L2109.64 20.3779L2099.7 28.1469L2098.46 20.3779L2094.73 28.1469L2092.25 22.9676L2091 29.8405L2087.28 25.5572L2089.08 31.2027C2091.22 31.8138 2093.19 33.0154 2094.75 34.6987H2094.75Z" fill="black"/>
<path d="M536.521 37.609C536.521 33.0047 534.802 28.6748 531.676 25.417C528.55 22.1592 524.4 20.3672 519.978 20.3672C515.987 20.3672 512.22 21.8329 509.223 24.5106L509.183 24.4692L476.881 58.1346V82.5135H500.273L532.576 48.8481L532.536 48.8067C535.105 45.6836 536.511 41.7577 536.511 37.5987L536.521 37.609ZM519.982 25.5517C523.074 25.5517 525.981 26.805 528.163 29.0839C530.344 31.3628 531.552 34.3927 531.552 37.609C531.552 40.38 530.657 43.0059 529.012 45.1397L512.752 28.1931C514.794 26.4839 517.319 25.5465 519.978 25.5465L519.982 25.5517ZM519.341 55.3326L501.734 73.6828L499.035 70.8705L516.643 52.5202L519.341 55.3326ZM495.522 67.2087L491.581 63.1015L509.188 44.7513L513.129 48.8585L495.522 67.2087ZM488.068 59.4398L485.369 56.6274L502.976 38.2772L505.675 41.0895L488.068 59.4398ZM489.31 77.3446L481.855 69.5756V60.2892L498.22 77.3446H489.31ZM522.855 51.6708L506.49 34.6154L509.188 31.8031L525.553 48.8585L522.855 51.6708Z" fill="#1A1A1A"/>
<path d="M1588.82 20.3672C1572.35 20.3672 1559 34.2788 1559 51.4429C1559 68.6071 1572.35 82.5187 1588.82 82.5187C1605.29 82.5187 1618.64 68.6071 1618.64 51.4429C1618.64 34.2788 1605.29 20.3672 1588.82 20.3672ZM1588.82 77.3394C1575.12 77.3394 1563.97 65.7222 1563.97 51.4429C1563.97 37.1636 1575.12 25.5465 1588.82 25.5465C1602.52 25.5465 1613.67 37.1636 1613.67 51.4429C1608.7 42.1565 1599.44 35.9051 1588.82 35.9051C1578.2 35.9051 1568.93 42.1565 1563.97 51.4429C1568.93 60.7294 1578.2 66.9808 1588.82 66.9808C1599.44 66.9808 1608.7 60.7294 1613.67 51.4429C1613.67 65.7222 1602.52 77.3394 1588.82 77.3394ZM1588.82 61.8015C1581.34 61.8015 1574.3 57.8963 1569.85 51.4429C1574.3 44.9895 1581.34 41.0844 1588.82 41.0844C1583.33 41.0844 1578.88 45.7198 1578.88 51.4429C1578.88 57.166 1583.33 61.8015 1588.82 61.8015ZM1588.82 41.0844C1596.29 41.0844 1603.33 44.9895 1607.79 51.4429C1603.33 57.8963 1596.29 61.8015 1588.82 61.8015C1594.31 61.8015 1598.76 57.166 1598.76 51.4429C1598.76 45.7198 1594.31 41.0844 1588.82 41.0844Z" fill="#1A1A1A"/>
<path d="M79.4746 64.2368C79.4746 66.4639 79.2063 68.4631 78.6646 70.2396C78.1229 72.0161 77.4122 73.5855 76.5227 74.9424C75.6331 76.2994 74.5944 77.4544 73.4017 78.4074C72.209 79.3604 70.9766 80.1425 69.6994 80.7484C68.4222 81.3544 67.1301 81.805 65.8131 82.0899C64.4962 82.3799 63.2538 82.5249 62.0909 82.5249H20.3808V71.2548H62.0909C64.1682 71.2548 65.7833 70.6177 66.9363 69.3488C68.0842 68.0799 68.6607 66.3759 68.6607 64.2368C68.6607 63.1958 68.5067 62.2428 68.2035 61.3779C67.9004 60.5129 67.463 59.7619 66.8915 59.1249C66.325 58.4878 65.6292 57.9958 64.8142 57.654C63.9942 57.307 63.0898 57.136 62.0909 57.136H37.2228C35.4785 57.136 33.59 56.8097 31.5674 56.1623C29.5448 55.5097 27.6662 54.4635 25.9318 53.0185C24.1974 51.5735 22.7562 49.683 21.6083 47.342C20.4553 45.001 19.8838 42.142 19.8838 38.7599C19.8838 35.3778 20.4603 32.524 21.6083 30.1985C22.7562 27.873 24.2024 25.9826 25.9318 24.522C27.6662 23.0615 29.5448 22.0101 31.5674 21.3575C33.59 20.7049 35.4785 20.3838 37.2228 20.3838H74.0279V31.6539H37.2228C35.1704 31.6539 33.5702 32.3065 32.4222 33.6065C31.2692 34.9065 30.6977 36.626 30.6977 38.7651C30.6977 40.9041 31.2742 42.6444 32.4222 43.903C33.5702 45.1615 35.1753 45.7882 37.2228 45.7882H62.1753C63.3382 45.8193 64.5707 45.985 65.8777 46.2854C67.1798 46.591 68.4768 47.0571 69.764 47.6942C71.0511 48.3312 72.2786 49.134 73.4465 50.0974C74.6094 51.0659 75.643 52.2261 76.5425 53.5882C77.4421 54.9452 78.1577 56.5093 78.6845 58.2703C79.2112 60.0313 79.4746 62.0253 79.4746 64.2524V64.2368Z" fill="#1A1A1A"/>
<path d="M142.355 82.5297H103.348C101.853 82.5297 100.213 82.2552 98.4434 81.7062C96.6692 81.1572 95.0243 80.256 93.5135 78.9975C92.0028 77.7389 90.7405 76.1074 89.7267 74.0978C88.7129 72.0883 88.2109 69.6281 88.2109 66.707V26.0547C88.2109 25.2727 88.3501 24.5372 88.6284 23.8432C88.9067 23.1491 89.2844 22.5432 89.7714 22.0201C90.2584 21.5021 90.8299 21.0981 91.4959 20.8081C92.1618 20.5181 92.8824 20.373 93.6577 20.373H142.355V31.6432H99.0199V66.707C99.0199 68.1779 99.3926 69.307 100.143 70.0891C100.893 70.8711 101.987 71.2596 103.428 71.2596H142.355V82.5297ZM137.49 57.1305H103.348V45.7775H137.49V57.1305Z" fill="#1A1A1A"/>
<path d="M212.388 41.2663C212.388 43.8404 212.08 46.1348 211.473 48.1599C210.862 50.185 210.037 51.9667 208.998 53.5102C207.96 55.0588 206.757 56.3795 205.4 57.4775C204.044 58.5755 202.622 59.4767 201.137 60.1863C199.651 60.8958 198.155 61.4086 196.644 61.7245C195.133 62.0456 193.712 62.201 192.38 62.201L214.962 82.5297H198.244L175.702 62.201H167.925V50.9309H192.38C193.737 50.8169 194.979 50.5217 196.102 50.04C197.225 49.5635 198.195 48.9213 199.015 48.1133C199.83 47.3054 200.461 46.3317 200.908 45.187C201.35 44.0476 201.574 42.7372 201.574 41.2663V34.1603C201.574 33.5233 201.499 33.0416 201.345 32.7101C201.191 32.3786 200.997 32.13 200.764 31.9747C200.53 31.8141 200.277 31.7209 200.013 31.695C199.75 31.6691 199.507 31.6535 199.288 31.6535H163.606V82.5349H152.792V26.0547C152.792 25.2727 152.931 24.5372 153.209 23.8432C153.488 23.1491 153.865 22.5432 154.352 22.0201C154.839 21.5021 155.411 21.0981 156.077 20.8081C156.743 20.5181 157.463 20.373 158.239 20.373H199.283C201.693 20.373 203.731 20.8288 205.396 21.7404C207.06 22.6519 208.412 23.7914 209.451 25.1639C210.489 26.5364 211.24 28.0177 211.697 29.6077C212.154 31.1978 212.383 32.6842 212.383 34.0723V41.2663H212.388Z" fill="#1A1A1A"/>
<path d="M282.131 20.3779L254.281 79.4944C253.844 80.4059 253.193 81.1414 252.333 81.6956C251.474 82.2497 250.524 82.5294 249.481 82.5294C248.437 82.5294 247.533 82.2497 246.673 81.6956C245.813 81.1414 245.147 80.4059 244.685 79.4944L216.875 20.3779H228.812L249.486 64.5314L270.239 20.3779H282.131Z" fill="#1A1A1A"/>
<path d="M299.594 82.5294H288.78V20.3779H299.594V82.5294Z" fill="#1A1A1A"/>
<path d="M365.636 82.5294H326.629C325.631 82.5294 324.557 82.4051 323.404 82.1617C322.251 81.9183 321.118 81.535 319.995 81.0119C318.872 80.494 317.798 79.8207 316.77 78.9972C315.746 78.1736 314.837 77.1792 314.046 76.0087C313.256 74.8382 312.625 73.4812 312.153 71.9326C311.681 70.3892 311.447 68.6489 311.447 66.7119V36.2007C311.447 35.1596 311.567 34.0409 311.8 32.8393C312.034 31.6429 312.401 30.4568 312.903 29.2863C313.4 28.1158 314.051 26.9971 314.856 25.925C315.662 24.858 316.626 23.9102 317.749 23.0867C318.872 22.2632 320.169 21.6054 321.635 21.1134C323.106 20.6214 324.766 20.3779 326.625 20.3779H365.631V31.6481H326.625C325.213 31.6481 324.13 32.0365 323.379 32.8186C322.629 33.6007 322.256 34.7556 322.256 36.2835V66.7067C322.256 68.1517 322.639 69.2704 323.399 70.0681C324.16 70.8605 325.238 71.2593 326.625 71.2593H365.631V82.5294H365.636Z" fill="#1A1A1A"/>
<path d="M429.764 82.5297H390.757C389.261 82.5297 387.621 82.2552 385.852 81.7062C384.078 81.1572 382.433 80.256 380.922 78.9975C379.411 77.7389 378.149 76.1074 377.135 74.0978C376.122 72.0883 375.62 69.6281 375.62 66.707V26.0547C375.62 25.2727 375.759 24.5372 376.037 23.8432C376.315 23.1491 376.693 22.5432 377.18 22.0201C377.667 21.5021 378.239 21.0981 378.905 20.8081C379.57 20.5181 380.291 20.373 381.066 20.373H429.764V31.6432H386.429V66.707C386.429 68.1779 386.801 69.307 387.552 70.0891C388.302 70.8711 389.395 71.2596 390.837 71.2596H429.764V82.5297ZM424.898 57.1305H390.757V45.7775H424.898V57.1305Z" fill="#1A1A1A"/>
<path d="M451.371 20.3779H440.567V31.6377H451.371V20.3779Z" fill="#1A1A1A"/>
<path d="M451.371 72H440.567V83.2598H451.371V72Z" fill="#1A1A1A"/>
<path fill-rule="evenodd" clip-rule="evenodd" d="M2013.7 20.6553H1973.94C1968.45 20.6553 1964 25.2907 1964 31.0139V72.4482C1964 78.1713 1968.45 82.8068 1973.94 82.8068H2013.7C2019.19 82.8068 2023.64 78.1713 2023.64 72.4482V31.0139C2023.64 25.2907 2019.19 20.6553 2013.7 20.6553ZM2018.67 31.0139V36.188H2009.97V25.8346H2013.7C2016.43 25.8346 2018.67 28.1601 2018.67 31.0139ZM1991.33 67.2637V77.6275H1982.64V67.2637H1991.33ZM1996.3 67.2637H2005V77.6275H1996.3V67.2637ZM1968.97 62.0844V41.3673H2018.67V62.0844H1968.97ZM1996.3 36.188V25.8346H2005V36.188H1996.3ZM1991.33 36.188H1982.64V25.8346H1991.33V36.188ZM1973.94 25.8346H1977.67V36.188H1968.97V31.0139C1968.97 28.1601 1971.2 25.8346 1973.94 25.8346ZM1968.97 72.4482V67.2637H1977.67V77.6275H1973.94C1971.2 77.6275 1968.97 75.302 1968.97 72.4482ZM2013.7 77.6275H2009.97V67.2637H2018.67V72.4482C2018.67 75.302 2016.43 77.6275 2013.7 77.6275Z" fill="#1A1A1A"/>
<path fill-rule="evenodd" clip-rule="evenodd" d="M1988.85 43.9521V59.49L2001.27 51.7211L1988.85 43.9521Z" fill="#1A1A1A"/>
<path d="M579.642 52.3502H560.067C559.565 52.3502 559.028 52.2881 558.452 52.1638C557.875 52.0395 557.304 51.8478 556.742 51.5889C556.181 51.3299 555.639 50.9881 555.127 50.5789C554.61 50.1646 554.158 49.6674 553.761 49.0769C553.363 48.4917 553.045 47.808 552.811 47.0311C552.573 46.2542 552.458 45.3841 552.458 44.4104V29.1004C552.458 28.5773 552.518 28.0179 552.637 27.4171C552.757 26.8163 552.941 26.2207 553.189 25.6354C553.437 25.0502 553.765 24.4856 554.168 23.9522C554.571 23.4135 555.058 22.9422 555.619 22.5279C556.181 22.1135 556.832 21.7872 557.572 21.5386C558.308 21.29 559.143 21.1709 560.077 21.1709H579.652V26.8267H560.077C559.366 26.8267 558.825 27.0235 558.447 27.4119C558.069 27.8004 557.885 28.3857 557.885 29.1522V44.4207C557.885 45.1458 558.074 45.7052 558.462 46.104C558.849 46.5028 559.381 46.6996 560.077 46.6996H579.652V52.3554L579.642 52.3502Z" fill="#1A1A1A"/>
<path d="M614.683 31.6479C614.683 32.9376 614.529 34.0925 614.226 35.1077C613.918 36.1228 613.505 37.0189 612.984 37.7957C612.462 38.5726 611.86 39.2356 611.18 39.7846C610.499 40.3336 609.783 40.7894 609.043 41.1416C608.297 41.4989 607.547 41.7527 606.786 41.9133C606.026 42.0738 605.315 42.1515 604.649 42.1515L615.98 52.3496H607.591L596.281 42.1515H592.379V36.4957H604.649C605.33 36.4388 605.951 36.2886 606.518 36.0503C607.08 35.8121 607.567 35.491 607.979 35.0818C608.392 34.6778 608.705 34.1858 608.928 33.6161C609.152 33.0412 609.261 32.3886 609.261 31.6479V28.0794C609.261 27.7583 609.222 27.52 609.147 27.3491C609.072 27.1834 608.973 27.0591 608.854 26.9814C608.734 26.9037 608.61 26.8519 608.476 26.8415C608.342 26.826 608.223 26.8208 608.108 26.8208H590.203V52.3547H584.776V24.0136C584.776 23.62 584.845 23.2523 584.985 22.9053C585.124 22.5583 585.318 22.2527 585.561 21.9937C585.805 21.7348 586.093 21.5276 586.426 21.3826C586.759 21.2376 587.122 21.165 587.509 21.165H608.108C609.321 21.165 610.34 21.3929 611.175 21.8487C612.009 22.3045 612.685 22.8794 613.207 23.5682C613.729 24.2571 614.107 24.9977 614.335 25.7953C614.564 26.5929 614.678 27.3388 614.678 28.038V31.6479H614.683Z" fill="#1A1A1A"/>
<path d="M647.174 52.3499H627.599C626.849 52.3499 626.029 52.21 625.134 51.9355C624.245 51.661 623.42 51.2052 622.659 50.5785C621.899 49.9467 621.268 49.1283 620.761 48.1184C620.254 47.1084 620 45.8757 620 44.41V24.0088C620 23.6151 620.07 23.2474 620.209 22.9004C620.348 22.5534 620.542 22.2478 620.786 21.9888C621.029 21.7299 621.317 21.5227 621.65 21.3777C621.983 21.2327 622.346 21.1602 622.734 21.1602H647.169V26.8159H625.422V44.41C625.422 45.1506 625.611 45.7152 625.984 46.1088C626.357 46.5024 626.908 46.6941 627.634 46.6941H647.165V52.3499H647.174ZM644.734 39.6036H627.599V33.9064H644.734V39.6036Z" fill="#1A1A1A"/>
<path d="M681.773 52.3499H676.346V44.6949H657.273V52.3499H651.846V36.755C651.846 34.4813 652.224 32.3837 652.974 30.4673C653.725 28.551 654.768 26.9092 656.105 25.5315C657.442 24.1538 659.017 23.0817 660.841 22.3151C662.665 21.5486 664.653 21.1602 666.81 21.1602H679.04C679.418 21.1602 679.771 21.2327 680.104 21.3777C680.436 21.5227 680.73 21.7247 680.978 21.9888C681.227 22.253 681.425 22.5534 681.565 22.9004C681.704 23.2474 681.773 23.6203 681.773 24.0088V52.3499ZM657.273 39.0391H676.346V26.8159H666.81C666.641 26.8159 666.293 26.8418 665.756 26.8936C665.219 26.9454 664.603 27.0697 663.898 27.2717C663.197 27.4737 662.451 27.7845 661.676 28.2092C660.896 28.6287 660.18 29.2088 659.524 29.9494C658.868 30.6901 658.332 31.612 657.909 32.7203C657.487 33.8287 657.273 35.1753 657.273 36.755V39.0391Z" fill="#1A1A1A"/>
<path d="M715.124 26.8208H703.167V52.3547H697.74V26.8208H685.764V21.165H715.124V26.8208Z" fill="#1A1A1A"/>
<path d="M724.577 52.3499H719.15V21.1602H724.577V52.3499Z" fill="#1A1A1A"/>
<path d="M760.865 21.165L746.696 51.2464C746.473 51.7125 746.145 52.0854 745.707 52.3651C745.27 52.6448 744.783 52.7898 744.256 52.7898C743.729 52.7898 743.267 52.65 742.825 52.3651C742.388 52.0802 742.05 51.7073 741.811 51.2464L727.663 21.165H733.735L744.251 43.6328L754.812 21.165H760.865Z" fill="#1A1A1A"/>
<path d="M790.981 52.3499H771.405C770.655 52.3499 769.835 52.21 768.94 51.9355C768.051 51.661 767.226 51.2052 766.465 50.5785C765.705 49.9467 765.074 49.1283 764.567 48.1184C764.06 47.1084 763.807 45.8757 763.807 44.41V24.0088C763.807 23.6151 763.876 23.2474 764.015 22.9004C764.155 22.5534 764.348 22.2478 764.592 21.9888C764.835 21.7299 765.124 21.5227 765.457 21.3777C765.79 21.2327 766.152 21.1602 766.54 21.1602H790.976V26.8159H769.229V44.41C769.229 45.1506 769.417 45.7152 769.79 46.1088C770.163 46.5024 770.714 46.6941 771.44 46.6941H790.971V52.3499H790.981ZM788.54 39.6036H771.405V33.9064H788.54V39.6036Z" fill="#1A1A1A"/>
<path d="M559.813 75.3347C559.356 75.0913 559.003 74.7443 558.75 74.2885C558.501 73.8327 558.377 73.2992 558.377 72.6829C558.377 72.0666 558.501 71.5331 558.75 71.0773C558.998 70.6215 559.351 70.2694 559.813 70.0259C560.275 69.7825 560.802 69.6582 561.408 69.6582C561.811 69.6582 562.169 69.6996 562.477 69.7773C562.785 69.855 563.073 69.9845 563.342 70.1606V71.5538C563.108 71.3622 562.845 71.2223 562.551 71.1343C562.258 71.0462 561.92 71.0048 561.538 71.0048C561.21 71.0048 560.916 71.0721 560.658 71.2068C560.4 71.3415 560.196 71.5383 560.052 71.7921C559.903 72.0459 559.828 72.3411 559.828 72.6777C559.828 73.2008 559.977 73.6152 560.27 73.9208C560.564 74.2263 560.961 74.3765 561.468 74.3765C561.746 74.3765 561.985 74.3247 562.174 74.2263V73.2992H561.324V72.2737H563.511V75.1586C562.944 75.516 562.243 75.6973 561.413 75.6973C560.807 75.6973 560.275 75.5781 559.818 75.3347H559.813Z" fill="#1A1A1A"/>
<path d="M564.221 69.7822H566.716C567.367 69.7822 567.879 69.9531 568.247 70.295C568.614 70.6368 568.798 71.1288 568.798 71.7711C568.798 72.201 568.709 72.5687 568.53 72.8743C568.351 73.1798 568.098 73.4026 567.765 73.5528L568.749 75.5727H567.302L566.418 73.7599H565.623V75.5727H564.216V69.7822H564.221ZM566.473 72.5273C566.756 72.5273 566.969 72.4703 567.124 72.3563C567.278 72.2424 567.352 72.0508 567.352 71.7711C567.352 71.4914 567.278 71.2842 567.124 71.1806C566.974 71.0719 566.756 71.0201 566.468 71.0201H565.623V72.5273H566.468H566.473Z" fill="#1A1A1A"/>
<path d="M571.229 69.7822H572.61L574.827 75.5727H573.385L572.938 74.3814H570.886L570.438 75.5727H568.992L571.219 69.7822H571.229ZM572.595 73.2524L571.919 71.3049L571.233 73.2524H572.595Z" fill="#1A1A1A"/>
<path d="M575.542 69.7825H577.992C578.638 69.7825 579.155 69.9586 579.543 70.3108C579.93 70.663 580.124 71.1602 580.124 71.7921C580.124 72.424 579.93 72.9471 579.547 73.3044C579.165 73.6618 578.643 73.8379 577.992 73.8379H576.948V75.5678H575.542V69.7773V69.7825ZM577.768 72.6104C578.052 72.6104 578.27 72.5483 578.434 72.4291C578.598 72.31 578.678 72.0977 578.678 71.7973C578.678 71.4969 578.598 71.2949 578.439 71.1861C578.28 71.0773 578.057 71.0204 577.773 71.0204H576.953V72.6104H577.773H577.768Z" fill="#1A1A1A"/>
<path d="M580.76 69.7822H582.167V72.0197H584.343V69.7822H585.75V75.5727H584.343V73.2368H582.167V75.5727H580.76V69.7822Z" fill="#1A1A1A"/>
<path d="M586.629 69.7822H588.036V75.5727H586.629V69.7822Z" fill="#1A1A1A"/>
<path d="M590.188 75.3347C589.73 75.0913 589.378 74.7443 589.124 74.2885C588.876 73.8327 588.751 73.2992 588.751 72.6829C588.751 72.0666 588.876 71.5331 589.124 71.0773C589.373 70.6215 589.726 70.2694 590.188 70.0259C590.65 69.7825 591.177 69.6582 591.783 69.6582C592.181 69.6582 592.533 69.6996 592.846 69.7825C593.16 69.8654 593.448 69.9949 593.711 70.1709V71.5642C593.478 71.3725 593.214 71.2327 592.921 71.1395C592.628 71.0463 592.29 71.0048 591.907 71.0048C591.361 71.0048 590.938 71.155 590.645 71.4502C590.347 71.7455 590.198 72.1546 590.198 72.6829C590.198 73.2112 590.347 73.6204 590.645 73.9156C590.943 74.216 591.366 74.361 591.907 74.361C592.29 74.361 592.633 74.3144 592.931 74.2212C593.234 74.1279 593.512 73.9777 593.776 73.7757V75.1586C593.274 75.516 592.608 75.6973 591.778 75.6973C591.172 75.6973 590.64 75.5781 590.183 75.3347H590.188Z" fill="#1A1A1A"/>
<path d="M591.276 64.8315C595.406 64.8315 598.77 68.3327 598.77 72.6419C598.77 76.951 595.411 80.4522 591.276 80.4522H561.702C557.572 80.4522 554.208 76.951 554.208 72.6419C554.208 68.3327 557.567 64.8315 561.702 64.8315H591.276ZM591.276 62.7598H561.702C556.464 62.7598 552.22 67.1829 552.22 72.6419C552.22 78.1008 556.464 82.5239 561.702 82.5239H591.276C596.514 82.5239 600.758 78.1008 600.758 72.6419C600.758 67.1829 596.514 62.7598 591.276 62.7598Z" fill="#1A1A1A"/>
<path d="M615.448 69.7822H618.261C618.798 69.7822 619.22 69.9221 619.528 70.1966C619.836 70.4711 619.995 70.8699 619.995 71.3826C619.995 71.6261 619.941 71.8539 619.836 72.0611C619.732 72.2735 619.578 72.4392 619.384 72.5583C619.653 72.6671 619.851 72.8276 619.981 73.0348C620.11 73.242 620.169 73.5113 620.169 73.8428C620.169 74.195 620.09 74.5057 619.931 74.7647C619.772 75.0237 619.558 75.2257 619.29 75.3655C619.021 75.5053 618.723 75.5727 618.395 75.5727H615.443V69.7822H615.448ZM617.953 72.0767C618.365 72.0767 618.574 71.8747 618.574 71.4707C618.574 71.2428 618.52 71.0874 618.415 71.0045C618.311 70.9165 618.147 70.8751 617.928 70.8751H616.855V72.0767H617.953ZM618.042 74.4798C618.281 74.4798 618.46 74.4332 618.574 74.34C618.688 74.2468 618.748 74.081 618.748 73.8428C618.748 73.6045 618.688 73.4336 618.564 73.3249C618.44 73.2161 618.256 73.1643 618.008 73.1643H616.855V74.4798H618.037H618.042Z" fill="#1A1A1A"/>
<path d="M620.885 69.7822H623.38C624.031 69.7822 624.542 69.9531 624.91 70.295C625.278 70.6368 625.462 71.1288 625.462 71.7711C625.462 72.201 625.372 72.5687 625.194 72.8743C625.015 73.1798 624.761 73.4026 624.428 73.5528L625.412 75.5727H623.966L623.081 73.7599H622.286V75.5727H620.88V69.7822H620.885ZM623.136 72.5273C623.419 72.5273 623.633 72.4703 623.787 72.3563C623.941 72.2424 624.016 72.0508 624.016 71.7711C624.016 71.4914 623.941 71.2842 623.787 71.1806C623.638 71.0719 623.419 71.0201 623.131 71.0201H622.286V72.5273H623.131H623.136Z" fill="#1A1A1A"/>
<path d="M627.892 69.7822H629.274L631.49 75.5727H630.049L629.602 74.3814H627.549L627.102 75.5727H625.656L627.882 69.7822H627.892ZM629.259 73.2524L628.583 71.3049L627.897 73.2524H629.259Z" fill="#1A1A1A"/>
<path d="M632.211 69.7822H633.602L635.645 73.2316V69.7822H637.051V75.5727H635.67L633.617 72.1181V75.5727H632.211V69.7822Z" fill="#1A1A1A"/>
<path d="M637.926 69.7822H639.924C640.535 69.7822 641.067 69.8962 641.524 70.1292C641.981 70.3623 642.329 70.6938 642.577 71.1288C642.826 71.5639 642.945 72.0715 642.945 72.6516C642.945 73.6149 642.677 74.34 642.135 74.8372C641.593 75.3344 640.843 75.5779 639.884 75.5779H637.926V69.7874V69.7822ZM640.003 74.34C640.485 74.34 640.853 74.1898 641.111 73.8842C641.37 73.5787 641.499 73.1695 641.499 72.6516C641.499 72.1751 641.37 71.7866 641.111 71.481C640.853 71.1755 640.5 71.0201 640.048 71.0201H639.332V74.3452H639.998L640.003 74.34Z" fill="#1A1A1A"/>
<path d="M643.661 69.7822H645.067V75.5727H643.661V69.7822Z" fill="#1A1A1A"/>
<path d="M645.942 69.7822H647.333L649.376 73.2316V69.7822H650.782V75.5727H649.401L647.348 72.1181V75.5727H645.942V69.7822Z" fill="#1A1A1A"/>
<path d="M652.934 75.3347C652.477 75.0913 652.124 74.7443 651.871 74.2885C651.622 73.8327 651.498 73.2992 651.498 72.6829C651.498 72.0666 651.622 71.5331 651.871 71.0773C652.119 70.6215 652.472 70.2694 652.934 70.0259C653.396 69.7825 653.923 69.6582 654.53 69.6582C654.932 69.6582 655.29 69.6996 655.598 69.7773C655.906 69.855 656.194 69.9845 656.463 70.1606V71.5538C656.229 71.3622 655.966 71.2223 655.673 71.1343C655.379 71.0462 655.041 71.0048 654.659 71.0048C654.331 71.0048 654.038 71.0721 653.779 71.2068C653.521 71.3415 653.317 71.5383 653.173 71.7921C653.024 72.0459 652.949 72.3411 652.949 72.6777C652.949 73.2008 653.098 73.6152 653.392 73.9208C653.685 74.2263 654.082 74.3765 654.589 74.3765C654.867 74.3765 655.106 74.3247 655.295 74.2263V73.2992H654.445V72.2737H656.632V75.1586C656.065 75.516 655.364 75.6973 654.534 75.6973C653.928 75.6973 653.396 75.5781 652.939 75.3347H652.934Z" fill="#1A1A1A"/>
<path d="M654.952 64.8315C659.082 64.8315 662.446 68.3327 662.446 72.6419C662.446 76.951 659.087 80.4522 654.952 80.4522H617.694C613.565 80.4522 610.2 76.951 610.2 72.6419C610.2 68.3327 613.56 64.8315 617.694 64.8315H654.952ZM654.952 62.7598H617.694C612.456 62.7598 608.212 67.1829 608.212 72.6419C608.212 78.1008 612.456 82.5239 617.694 82.5239H654.952C660.19 82.5239 664.434 78.1008 664.434 72.6419C664.434 67.1829 660.19 62.7598 654.952 62.7598Z" fill="#1A1A1A"/>
<path d="M679.01 69.7825H681.46C682.106 69.7825 682.623 69.9586 683.01 70.3108C683.398 70.663 683.592 71.1602 683.592 71.7921C683.592 72.424 683.398 72.9471 683.015 73.3044C682.633 73.6618 682.111 73.8379 681.46 73.8379H680.416V75.5678H679.01V69.7773V69.7825ZM681.236 72.6104C681.519 72.6104 681.738 72.5483 681.902 72.4291C682.066 72.31 682.146 72.0977 682.146 71.7973C682.146 71.4969 682.066 71.2949 681.907 71.1861C681.748 71.0773 681.524 71.0204 681.241 71.0204H680.421V72.6104H681.241H681.236Z" fill="#1A1A1A"/>
<path d="M684.228 69.7822H686.723C687.374 69.7822 687.886 69.9531 688.254 70.295C688.621 70.6368 688.805 71.1288 688.805 71.7711C688.805 72.201 688.716 72.5687 688.537 72.8743C688.358 73.1798 688.104 73.4026 687.771 73.5528L688.755 75.5727H687.309L686.425 73.7599H685.63V75.5727H684.223V69.7822H684.228ZM686.479 72.5273C686.763 72.5273 686.976 72.4703 687.13 72.3563C687.284 72.2424 687.359 72.0508 687.359 71.7711C687.359 71.4914 687.284 71.2842 687.13 71.1806C686.981 71.0719 686.763 71.0201 686.474 71.0201H685.63V72.5273H686.474H686.479Z" fill="#1A1A1A"/>
<path d="M689.521 69.7822H690.927V75.5727H689.521V69.7822Z" fill="#1A1A1A"/>
<path d="M691.802 69.7822H693.193L695.236 73.2316V69.7822H696.642V75.5727H695.261L693.208 72.1181V75.5727H691.802V69.7822Z" fill="#1A1A1A"/>
<path d="M698.809 71.0208H697.243V69.7881H701.79V71.0208H700.215V75.5785H698.809V71.0208Z" fill="#1A1A1A"/>
<path d="M702.387 69.7822H703.793V75.5727H702.387V69.7822Z" fill="#1A1A1A"/>
<path d="M704.668 69.7822H706.059L708.102 73.2316V69.7822H709.508V75.5727H708.127L706.074 72.1181V75.5727H704.668V69.7822Z" fill="#1A1A1A"/>
<path d="M711.66 75.3347C711.203 75.0913 710.85 74.7443 710.597 74.2885C710.348 73.8327 710.224 73.2992 710.224 72.6829C710.224 72.0666 710.348 71.5331 710.597 71.0773C710.845 70.6215 711.198 70.2694 711.66 70.0259C712.123 69.7825 712.649 69.6582 713.256 69.6582C713.658 69.6582 714.016 69.6996 714.324 69.7773C714.632 69.855 714.92 69.9845 715.189 70.1606V71.5538C714.955 71.3622 714.692 71.2223 714.399 71.1343C714.105 71.0462 713.767 71.0048 713.385 71.0048C713.057 71.0048 712.764 71.0721 712.505 71.2068C712.247 71.3415 712.043 71.5383 711.899 71.7921C711.75 72.0459 711.675 72.3411 711.675 72.6777C711.675 73.2008 711.824 73.6152 712.118 73.9208C712.411 74.2263 712.808 74.3765 713.315 74.3765C713.594 74.3765 713.832 74.3247 714.021 74.2263V73.2992H713.171V72.2737H715.358V75.1586C714.791 75.516 714.09 75.6973 713.261 75.6973C712.654 75.6973 712.123 75.5781 711.665 75.3347H711.66Z" fill="#1A1A1A"/>
<path d="M712.51 64.8315C716.64 64.8315 720.005 68.3327 720.005 72.6419C720.005 76.951 716.645 80.4522 712.51 80.4522H681.371C677.241 80.4522 673.877 76.951 673.877 72.6419C673.877 68.3327 677.236 64.8315 681.371 64.8315H712.51ZM712.51 62.7598H681.371C676.133 62.7598 671.889 67.1829 671.889 72.6419C671.889 78.1008 676.133 82.5239 681.371 82.5239H712.51C717.748 82.5239 721.992 78.1008 721.992 72.6419C721.992 67.1829 717.748 62.7598 712.51 62.7598Z" fill="#1A1A1A"/>
<path d="M737.761 69.7825H740.211C740.857 69.7825 741.374 69.9586 741.761 70.3108C742.149 70.663 742.343 71.1602 742.343 71.7921C742.343 72.424 742.149 72.9471 741.766 73.3044C741.384 73.6618 740.862 73.8379 740.211 73.8379H739.167V75.5678H737.761V69.7773V69.7825ZM739.987 72.6104C740.27 72.6104 740.489 72.5483 740.653 72.4291C740.817 72.31 740.897 72.0977 740.897 71.7973C740.897 71.4969 740.817 71.2949 740.658 71.1861C740.499 71.0773 740.275 71.0204 739.992 71.0204H739.172V72.6104H739.992H739.987Z" fill="#1A1A1A"/>
<path d="M744.251 69.7822H745.633L747.849 75.5727H746.408L745.961 74.3814H743.908L743.461 75.5727H742.015L744.241 69.7822H744.251ZM745.618 73.2524L744.942 71.3049L744.256 73.2524H745.618Z" fill="#1A1A1A"/>
<path d="M749.409 75.3347C748.952 75.0913 748.599 74.7443 748.346 74.2885C748.097 73.8327 747.973 73.2992 747.973 72.6829C747.973 72.0666 748.097 71.5331 748.346 71.0773C748.594 70.6215 748.947 70.2694 749.409 70.0259C749.872 69.7825 750.398 69.6582 751.005 69.6582C751.402 69.6582 751.755 69.6996 752.068 69.7825C752.381 69.8654 752.669 69.9949 752.933 70.1709V71.5642C752.699 71.3725 752.436 71.2327 752.143 71.1395C751.849 71.0463 751.512 71.0048 751.129 71.0048C750.582 71.0048 750.16 71.155 749.867 71.4502C749.568 71.7455 749.419 72.1546 749.419 72.6829C749.419 73.2112 749.568 73.6204 749.867 73.9156C750.165 74.216 750.587 74.361 751.129 74.361C751.512 74.361 751.854 74.3144 752.153 74.2212C752.456 74.1279 752.734 73.9777 752.997 73.7757V75.1586C752.496 75.516 751.83 75.6973 751 75.6973C750.393 75.6973 749.862 75.5781 749.404 75.3347H749.409Z" fill="#1A1A1A"/>
<path d="M753.713 69.7822H755.12V72.1854L757.038 69.7822H758.708L756.457 72.5998L758.857 75.5727H757.187L755.12 73.0141V75.5727H753.713V69.7822Z" fill="#1A1A1A"/>
<path d="M761.282 69.7822H762.664L764.88 75.5727H763.439L762.992 74.3814H760.939L760.492 75.5727H759.046L761.272 69.7822H761.282ZM762.649 73.2524L761.973 71.3049L761.287 73.2524H762.649Z" fill="#1A1A1A"/>
<path d="M766.441 75.3347C765.983 75.0913 765.631 74.7443 765.377 74.2885C765.129 73.8327 765.004 73.2992 765.004 72.6829C765.004 72.0666 765.129 71.5331 765.377 71.0773C765.626 70.6215 765.978 70.2694 766.441 70.0259C766.903 69.7825 767.43 69.6582 768.036 69.6582C768.438 69.6582 768.796 69.6996 769.104 69.7773C769.412 69.855 769.701 69.9845 769.969 70.1606V71.5538C769.735 71.3622 769.472 71.2223 769.179 71.1343C768.886 71.0462 768.548 71.0048 768.165 71.0048C767.837 71.0048 767.544 71.0721 767.285 71.2068C767.027 71.3415 766.823 71.5383 766.679 71.7921C766.53 72.0459 766.456 72.3411 766.456 72.6777C766.456 73.2008 766.605 73.6152 766.898 73.9208C767.191 74.2263 767.589 74.3765 768.095 74.3765C768.374 74.3765 768.612 74.3247 768.801 74.2263V73.2992H767.951V72.2737H770.138V75.1586C769.571 75.516 768.871 75.6973 768.041 75.6973C767.435 75.6973 766.903 75.5781 766.446 75.3347H766.441Z" fill="#1A1A1A"/>
<path d="M770.849 69.7822H772.255V75.5727H770.849V69.7822Z" fill="#1A1A1A"/>
<path d="M773.129 69.7822H774.521L776.563 73.2316V69.7822H777.97V75.5727H776.588L774.536 72.1181V75.5727H773.129V69.7822Z" fill="#1A1A1A"/>
<path d="M780.122 75.3347C779.665 75.0913 779.312 74.7443 779.058 74.2885C778.81 73.8327 778.686 73.2992 778.686 72.6829C778.686 72.0666 778.81 71.5331 779.058 71.0773C779.307 70.6215 779.66 70.2694 780.122 70.0259C780.584 69.7825 781.111 69.6582 781.717 69.6582C782.12 69.6582 782.477 69.6996 782.785 69.7773C783.094 69.855 783.382 69.9845 783.65 70.1606V71.5538C783.417 71.3622 783.153 71.2223 782.86 71.1343C782.567 71.0462 782.229 71.0048 781.846 71.0048C781.518 71.0048 781.225 71.0721 780.967 71.2068C780.708 71.3415 780.504 71.5383 780.36 71.7921C780.211 72.0459 780.137 72.3411 780.137 72.6777C780.137 73.2008 780.286 73.6152 780.579 73.9208C780.872 74.2263 781.27 74.3765 781.777 74.3765C782.055 74.3765 782.294 74.3247 782.482 74.2263V73.2992H781.633V72.2737H783.819V75.1586C783.253 75.516 782.552 75.6973 781.722 75.6973C781.116 75.6973 780.584 75.5781 780.127 75.3347H780.122Z" fill="#1A1A1A"/>
<path d="M782.304 64.8315C786.434 64.8315 789.798 68.3327 789.798 72.6419C789.798 76.951 786.439 80.4522 782.304 80.4522H738.924C734.794 80.4522 731.43 76.951 731.43 72.6419C731.43 68.3327 734.789 64.8315 738.924 64.8315H782.304ZM782.304 62.7598H738.924C733.686 62.7598 729.442 67.1829 729.442 72.6419C729.442 78.1008 733.686 82.5239 738.924 82.5239H782.304C787.542 82.5239 791.786 78.1008 791.786 72.6419C791.786 67.1829 787.542 62.7598 782.304 62.7598Z" fill="#1A1A1A"/>
<path d="M1029.65 32.4795H991.822C989.714 32.4795 988.061 33.1212 986.864 34.4033C985.696 35.6855 985.112 37.3808 985.112 39.4893C985.112 41.6261 985.696 43.3216 986.864 44.5752C988.061 45.8003 989.714 46.4131 991.822 46.4131H1017.46C1018.66 46.4416 1019.93 46.6124 1021.27 46.9258C1022.61 47.2107 1023.93 47.6663 1025.24 48.293C1026.58 48.9198 1027.85 49.7178 1029.05 50.6865C1030.24 51.6267 1031.3 52.7665 1032.21 54.1055C1033.15 55.4446 1033.89 56.9836 1034.43 58.7217C1034.97 60.4596 1035.24 62.4254 1035.24 64.6191C1035.24 66.8131 1034.96 68.794 1034.39 70.5605C1033.85 72.2984 1033.12 73.8367 1032.21 75.1758C1031.3 76.5148 1030.23 77.6545 1029 78.5947C1027.78 79.535 1026.51 80.305 1025.2 80.9033C1023.89 81.5016 1022.55 81.9426 1021.18 82.2275C1019.84 82.5125 1018.58 82.6553 1017.38 82.6553H974.513V71.543H1017.38C1019.52 71.5429 1021.17 70.9167 1022.34 69.6631C1023.53 68.4094 1024.13 66.7276 1024.13 64.6191C1024.13 63.5936 1023.98 62.6535 1023.66 61.7988C1023.35 60.9441 1022.89 60.203 1022.29 59.5762C1021.73 58.9494 1021.01 58.465 1020.16 58.123C1019.33 57.7812 1018.41 57.6104 1017.38 57.6104H991.822C990.027 57.6104 988.09 57.2967 986.01 56.6699C983.93 56.0146 981.992 54.9744 980.197 53.5498C978.431 52.1252 976.949 50.2591 975.752 47.9512C974.584 45.6434 974 42.8227 974 39.4893C974 36.1556 974.584 33.3487 975.752 31.0693C976.949 28.7615 978.431 26.8953 980.197 25.4707C981.992 24.0177 983.93 22.9774 986.01 22.3506C988.09 21.6953 990.027 21.3682 991.822 21.3682H1029.65V32.4795ZM1102.1 32.4795H1077.61V82.6553H1066.5V32.4795H1041.97V21.3682H1102.1V32.4795ZM1161 21.3682C1163.48 21.3682 1165.58 21.8237 1167.29 22.7354C1169 23.6186 1170.38 24.7447 1171.43 26.1123C1172.52 27.4512 1173.29 28.904 1173.74 30.4707C1174.23 32.0377 1174.47 33.5055 1174.47 34.873V41.9678C1174.47 44.5036 1174.15 46.7692 1173.53 48.7637C1172.9 50.758 1172.05 52.5249 1170.96 54.0635C1169.91 55.5734 1168.68 56.8695 1167.29 57.9521C1165.89 59.0347 1164.42 59.9323 1162.89 60.6445C1161.38 61.3284 1159.84 61.8272 1158.27 62.1406C1156.73 62.454 1155.28 62.6104 1153.91 62.6104L1177.12 82.6553H1159.94L1136.77 62.6104H1128.78V51.499H1153.91C1155.31 51.3851 1156.57 51.0994 1157.71 50.6436C1158.88 50.1592 1159.88 49.5185 1160.71 48.7207C1161.56 47.923 1162.22 46.9685 1162.67 45.8574C1163.13 44.7177 1163.36 43.4209 1163.36 41.9678V34.959C1163.36 34.3322 1163.27 33.8622 1163.1 33.5488C1162.96 33.2071 1162.76 32.9648 1162.5 32.8223C1162.27 32.6513 1162.02 32.551 1161.73 32.5225C1161.48 32.494 1161.23 32.4795 1161 32.4795H1124.33V82.6553H1113.22V26.9668C1113.22 26.1975 1113.37 25.4709 1113.65 24.7871C1113.94 24.1033 1114.32 23.5051 1114.8 22.9922C1115.32 22.4794 1115.92 22.0798 1116.6 21.7949C1117.28 21.5102 1118.02 21.3682 1118.82 21.3682H1161ZM1243.08 21.3682C1243.84 21.3682 1244.57 21.51 1245.25 21.7949C1245.94 22.0798 1246.54 22.4794 1247.05 22.9922C1247.56 23.505 1247.96 24.1034 1248.25 24.7871C1248.53 25.4709 1248.67 26.1975 1248.67 26.9668V82.6553H1237.56V67.6113H1198.5V82.6553H1187.39V52.0117C1187.39 47.5384 1188.16 43.4212 1189.69 39.6602C1191.23 35.8992 1193.37 32.6648 1196.1 29.958C1198.84 27.2512 1202.07 25.1429 1205.81 23.6328C1209.54 22.1227 1213.61 21.3682 1218.03 21.3682H1243.08ZM1319.93 32.4795H1295.44V82.6553H1284.33V32.4795H1259.8V21.3682H1319.93V32.4795ZM1386.44 32.4795H1341.91V67.0557C1341.91 68.5088 1342.29 69.6204 1343.06 70.3896C1343.83 71.1589 1344.96 71.543 1346.44 71.543H1386.44V82.6553H1346.35C1344.82 82.6553 1343.14 82.3841 1341.31 81.8428C1339.49 81.3014 1337.79 80.4185 1336.23 79.1934C1334.69 77.9397 1333.39 76.3302 1332.34 74.3643C1331.31 72.3698 1330.8 69.9334 1330.8 67.0557V26.9668C1330.8 26.1976 1330.94 25.4708 1331.22 24.7871C1331.51 24.1034 1331.89 23.505 1332.38 22.9922C1332.89 22.4793 1333.49 22.0798 1334.17 21.7949C1334.86 21.51 1335.6 21.3682 1336.4 21.3682H1386.44V32.4795ZM1459.67 32.4795H1414.49C1413.04 32.4796 1411.93 32.8647 1411.16 33.6338C1410.39 34.403 1410 35.5427 1410 37.0527V67.0557C1410 68.4803 1410.39 69.5919 1411.16 70.3896C1411.96 71.1587 1413.07 71.5429 1414.49 71.543H1449.07V57.6104H1419.49V46.4131H1454.58C1455.38 46.4131 1456.12 46.5695 1456.8 46.8828C1457.49 47.1677 1458.07 47.5663 1458.56 48.0791C1459.07 48.592 1459.47 49.1912 1459.75 49.875C1460.04 50.5302 1460.18 51.2425 1460.18 52.0117V77.0566C1460.18 77.8544 1460.04 78.5955 1459.75 79.2793C1459.47 79.963 1459.07 80.5614 1458.56 81.0742C1458.07 81.5586 1457.49 81.9426 1456.8 82.2275C1456.12 82.5124 1455.38 82.6552 1454.58 82.6553H1414.49C1413.47 82.6552 1412.35 82.5414 1411.16 82.3135C1409.99 82.057 1408.82 81.672 1407.65 81.1592C1406.51 80.6463 1405.42 79.9911 1404.36 79.1934C1403.31 78.3671 1402.37 77.3838 1401.54 76.2441C1400.74 75.076 1400.1 73.7366 1399.62 72.2266C1399.13 70.6881 1398.89 68.9644 1398.89 67.0557V36.9678C1398.89 35.9421 1399.01 34.8449 1399.23 33.6768C1399.49 32.4801 1399.87 31.3116 1400.39 30.1719C1400.9 29.0038 1401.57 27.893 1402.4 26.8389C1403.22 25.7846 1404.21 24.8583 1405.35 24.0605C1406.51 23.2343 1407.85 22.5791 1409.36 22.0947C1410.87 21.6104 1412.58 21.3682 1414.49 21.3682H1459.67V32.4795ZM1482.88 41.8828C1482.88 43.3358 1483.11 44.6464 1483.57 45.8145C1484.03 46.9541 1484.67 47.9374 1485.49 48.7637C1486.32 49.5898 1487.32 50.2307 1488.48 50.6865C1489.68 51.1139 1491.01 51.3281 1492.46 51.3281H1512.5C1513.56 51.1572 1514.64 50.9429 1515.75 50.6865C1516.86 50.4016 1517.87 49.9317 1518.79 49.2764C1519.7 48.6211 1520.45 47.7091 1521.05 46.541C1521.65 45.3729 1521.95 43.8201 1521.95 41.8828V21.3682H1533.06V41.8828C1533.06 44.4185 1532.73 46.6834 1532.08 48.6777C1531.45 50.6722 1530.61 52.4389 1529.56 53.9775C1528.5 55.4876 1527.26 56.7845 1525.84 57.8672C1524.44 58.9499 1522.99 59.8473 1521.48 60.5596C1519.97 61.2434 1518.43 61.7413 1516.86 62.0547C1515.32 62.3681 1513.87 62.5254 1512.5 62.5254H1508.02V82.6553H1496.82V62.5254H1492.37C1491.01 62.5254 1489.54 62.3681 1487.97 62.0547C1486.43 61.7413 1484.89 61.2433 1483.36 60.5596C1481.85 59.8473 1480.39 58.9498 1479 57.8672C1477.6 56.7845 1476.36 55.4876 1475.28 53.9775C1474.22 52.439 1473.37 50.6722 1472.71 48.6777C1472.09 46.6549 1471.77 44.3899 1471.77 41.8828V21.3682H1482.88V41.8828ZM1381.44 57.6104H1346.35V46.4131H1381.44V57.6104ZM1218.03 32.4795C1217.69 32.4795 1216.96 32.5365 1215.85 32.6504C1214.77 32.7359 1213.5 32.9781 1212.05 33.377C1210.62 33.7758 1209.11 34.3886 1207.52 35.2148C1205.92 36.0411 1204.45 37.1817 1203.11 38.6348C1201.78 40.0878 1200.66 41.9108 1199.78 44.1045C1198.93 46.2699 1198.5 48.906 1198.5 52.0117V56.499H1237.56V32.4795H1218.03Z" fill="black"/>
<path d="M6074 0H3036V104H6074V0Z" fill="#00FF00"/>
<path d="M3115.47 64.2368C3115.47 66.4639 3115.21 68.4631 3114.66 70.2396C3114.12 72.0161 3113.41 73.5855 3112.52 74.9424C3111.63 76.2994 3110.59 77.4544 3109.4 78.4074C3108.21 79.3604 3106.98 80.1425 3105.7 80.7484C3104.42 81.3544 3103.13 81.805 3101.81 82.0899C3100.5 82.3799 3099.25 82.5249 3098.09 82.5249H3056.38V71.2548H3098.09C3100.17 71.2548 3101.78 70.6177 3102.94 69.3488C3104.08 68.0799 3104.66 66.3759 3104.66 64.2368C3104.66 63.1958 3104.51 62.2428 3104.2 61.3779C3103.9 60.5129 3103.46 59.7619 3102.89 59.1249C3102.32 58.4878 3101.63 57.9958 3100.81 57.654C3099.99 57.307 3099.09 57.136 3098.09 57.136H3073.22C3071.48 57.136 3069.59 56.8097 3067.57 56.1623C3065.54 55.5097 3063.67 54.4635 3061.93 53.0185C3060.2 51.5735 3058.76 49.683 3057.61 47.342C3056.45 45.001 3055.88 42.142 3055.88 38.7599C3055.88 35.3778 3056.46 32.524 3057.61 30.1985C3058.76 27.873 3060.2 25.9826 3061.93 24.522C3063.67 23.0615 3065.54 22.0101 3067.57 21.3575C3069.59 20.7049 3071.48 20.3838 3073.22 20.3838H3110.03V31.6539H3073.22C3071.17 31.6539 3069.57 32.3065 3068.42 33.6065C3067.27 34.9065 3066.7 36.626 3066.7 38.7651C3066.7 40.9041 3067.27 42.6444 3068.42 43.903C3069.57 45.1615 3071.17 45.7882 3073.22 45.7882H3098.17C3099.34 45.8193 3100.57 45.985 3101.88 46.2854C3103.18 46.591 3104.48 47.0571 3105.76 47.6942C3107.05 48.3312 3108.28 49.134 3109.45 50.0974C3110.61 51.0659 3111.64 52.2261 3112.54 53.5882C3113.44 54.9452 3114.16 56.5093 3114.68 58.2703C3115.21 60.0313 3115.47 62.0253 3115.47 64.2524V64.2368Z" fill="#1A1A1A"/>
</g>
<defs>
<clipPath id="clip0_377_9066">
<rect width="3058" height="104" fill="white"/>
</clipPath>
</defs>
</svg>
